<?xml version="1.0" encoding="utf-8"?>
<svg 
  viewBox="0 0 955.8958740234375 612.312744140625"
  version="1.1"
  xmlns="http://www.w3.org/2000/svg"
  x="0px"
  y="0px"
  width="955.8958740234375px"
  height="612.312744140625px">

  <g transform="matrix(7.587253093719482, 0, 0, 7.587253093719482, 0.23312856256961823, -162.80135345458984)">
    <g transform="matrix(1, 0, 0, 1, 0.1459674343505597, 1.313706909155124)">
      <g transform="matrix(1, 0, 0, 1, -7.105427357601002e-15, 0)">
        <path d="m62.548 20.889c-17.797 0-32.227 14.431-32.227 32.228 0 8.898 3.597 16.959 9.433 22.794 2.917 2.918 4.8 21.287 8.657 22.92 3.857 1.629 24.442 1.629 28.299 0 3.857-1.633 5.715-20.002 8.632-22.92 5.836-5.835 9.458-13.896 9.458-22.794 0-17.797-14.455-32.228-32.252-32.228zm-52.57 17.115c-3.828 0.092-7.4182 2.418-8.9076 6.205-1.9859 5.049 0.5054 10.775 5.5547 12.761 2.4526 0.964 5.0697 0.827 7.3317-0.1l13.661 5.354c-0.762-2.933-1.301-5.942-1.301-9.107 0-2.161 0.26-4.248 0.626-6.306l-7.832-3.077c-1.024-2.22-2.827-4.09-5.28-5.055-1.262-0.496-2.577-0.706-3.8528-0.675zm105.14 0c-1.28-0.033-2.59 0.179-3.86 0.675-2.45 0.965-4.25 2.811-5.28 5.03l-7.827 3.077c0.369 2.066 0.651 4.161 0.651 6.331 0 3.169-0.555 6.197-1.326 9.132l13.682-5.379c2.27 0.927 4.86 1.039 7.31 0.075 5.05-1.986 7.54-7.662 5.56-12.711-1.49-3.787-5.08-6.131-8.91-6.23zm-65.733 7.331c5.054 0 9.158 4.104 9.158 9.158s-4.104 9.158-9.158 9.158-9.158-4.104-9.158-9.158 4.104-9.158 9.158-9.158zm26.322 0c5.054 0 9.158 4.104 9.158 9.158s-4.104 9.158-9.158 9.158-9.158-4.104-9.158-9.158 4.104-9.158 9.158-9.158zm-43.564 27.423-18.19 7.156c-2.262-0.926-4.8791-1.039-7.3317-0.075-5.0493 1.986-7.5406 7.687-5.5547 12.736 1.9859 5.05 7.7116 7.515 12.76 5.53 2.453-0.965 4.256-2.81 5.28-5.029l19.792-7.782c-0.316-1.245-0.649-2.645-0.951-3.653-0.596-1.988-1.654-3.506-1.051-2.903-1.804-1.803-3.364-3.827-4.754-5.98zm60.802 0c-1.397 2.156-2.974 4.175-4.779 5.98 0.605-0.605-0.457 0.915-1.051 2.903-0.299 1.001-0.637 2.392-0.951 3.628l19.812 7.807c1.03 2.219 2.83 4.065 5.28 5.029 5.05 1.985 10.78-0.48 12.77-5.53 1.98-5.049-0.51-10.75-5.56-12.736-2.45-0.964-5.04-0.851-7.31 0.075l-18.213-7.156z" style="fill-opacity: 1; stroke: rgb(0, 0, 0); stroke-width: 0; stroke-opacity: 1;"/>
      </g>
    </g>
  </g>
</svg>
