<svg xmlns="http://www.w3.org/2000/svg" viewBox="0 0 48 48"><defs><style>.cls-1,.cls-2{fill:#30385c;}.cls-2{opacity:0.5;}</style></defs><title>success</title><g id="Layer_2" data-name="Layer 2"><path class="cls-1" d="M41,42H7a1,1,0,0,1-1-1V7A1,1,0,0,1,7,6H41a1,1,0,0,1,1,1V41A1,1,0,0,1,41,42ZM8,40H40V8H8Z"/><circle class="cls-1" cx="11" cy="11" r="1"/><circle class="cls-1" cx="15" cy="11" r="1"/><circle class="cls-1" cx="19" cy="11" r="1"/><path class="cls-1" d="M21,16H7a1,1,0,0,1,0-2H20.59l3.7-3.71A1,1,0,0,1,25,10H41a1,1,0,0,1,0,2H25.41l-3.7,3.71A1,1,0,0,1,21,16Z"/><path class="cls-1" d="M13.5,24.5a1,1,0,0,1-.71-.29l-1.5-1.5a1,1,0,0,1,1.42-1.42l.79.8,2.79-2.8a1,1,0,0,1,1.42,1.42l-3.5,3.5A1,1,0,0,1,13.5,24.5Z"/><path class="cls-1" d="M13.5,30.5a1,1,0,0,1-.71-.29l-1.5-1.5a1,1,0,0,1,1.42-1.42l.79.8,2.79-2.8a1,1,0,0,1,1.42,1.42l-3.5,3.5A1,1,0,0,1,13.5,30.5Z"/><path class="cls-1" d="M13.5,36.5a1,1,0,0,1-.71-.29l-1.5-1.5a1,1,0,0,1,1.42-1.42l.79.8,2.79-2.8a1,1,0,0,1,1.42,1.42l-3.5,3.5A1,1,0,0,1,13.5,36.5Z"/><path class="cls-1" d="M36,23H21a1,1,0,0,1,0-2H36a1,1,0,0,1,0,2Z"/><path class="cls-1" d="M36,29H21a1,1,0,0,1,0-2H36a1,1,0,0,1,0,2Z"/><path class="cls-1" d="M36,35H21a1,1,0,0,1,0-2H36a1,1,0,0,1,0,2Z"/><rect class="cls-2" x="38" y="12" width="3" height="28"/><path class="cls-2" d="M38,37h0a0,0,0,0,1,0,0v3a0,0,0,0,1,0,0H35a0,0,0,0,1,0,0v0A3,3,0,0,1,38,37Z"/><path class="cls-2" d="M41,10H34a2,2,0,0,0,2-2h5Z"/></g></svg>