<?xml version="1.0" encoding="utf-8"?>

<!DOCTYPE svg PUBLIC "-//W3C//DTD SVG 1.1//EN" "http://www.w3.org/Graphics/SVG/1.1/DTD/svg11.dtd">
<svg version="1.1" id="Layer_1" xmlns="http://www.w3.org/2000/svg" xmlns:xlink="http://www.w3.org/1999/xlink" x="0px" y="0px"
	 viewBox="-60.477 -23.674 1197.038 1698.355" enable-background="new -60.477 -23.674 1197.038 1698.355" xml:space="preserve">
<g>
	<path fill="#020202" d="M532.775,25.75l0.683-0.246c5.803,3.742,9.724,9.69,13.409,15.392c5.131,8.839,9.825,18.473,10.116,28.891
		c1.053,17.857-7.719,34.862-19.459,47.779c-1.714,2.386-5.512,3.092-7.629,0.885c-4.335-4.011-7.595-9.018-10.631-14.037
		c-5.691-9.41-9.746-20.097-10.116-31.165c0.437-17.33,8.323-34.213,21.05-45.93C530.971,26.658,531.834,26.142,532.775,25.75z"/>
	<path fill="#020202" d="M603.407,34.712c10.015-1.019,20.265-1.075,30.224,0.56c5.758,1.445,11.796,0.672,17.532,2.207
		c37.069,6.15,73.533,16.703,107.746,32.342c17.005,8.077,33.753,16.949,48.854,28.253c12.278,9.679,24.321,21.162,29.575,36.274
		c4.246,11.976,0.919,25.564-7.013,35.221c-8.514,10.094-20.534,16.938-33.204,20.31c-9.119,2.263-18.809,4.268-28.085,1.725
		c-13.219-3.417-25.564-11.247-33.417-22.54c-2.543-3.831-4.694-8.223-4.649-12.917c-0.28-7.629,4.705-15,11.55-18.148
		c2.341-0.527,5.646-1.019,6.912,1.602c4.862,7.248,9.208,15.616,17.274,19.817c5.209,2.756,11.707,1.165,15.784-2.868
		c6.755-6.397,11.471-15.572,11.046-25.026c0.527-11.124-4.772-21.587-11.483-30.112c-13.891-17.778-34.515-28.757-55.385-36.274
		c-15.37-5.758-31.311-10.239-47.644-12.132c-11.662-2.241-23.671-1.042-35.075,1.916c-7.349,2.621-15.303,6.072-19.078,13.376
		c-2.834,4.414-2.241,10.497,0.919,14.586c7.539,6.677,17.812,8.581,27.48,9.881c3.114,0.358,7.304,2.285,6.52,6.117
		c-1.255,5.87-6.475,10.015-11.483,12.782c-11.875,5.377-25.396,6.173-38.189,4.627c-9.545-1.031-17.084-7.943-22.338-15.527
		c-7.114-10.037-11.471-21.991-12.536-34.246c-0.403-9.757,3.282-20.478,11.763-25.99C591.79,37.031,597.738,35.922,603.407,34.712z
		"/>
	<path fill="#020202" d="M435.413,39.35c7.618-1.176,15.359-0.773,23.055-0.829c9.085-0.157,18.63,2.005,25.855,7.752
		c8.951,7.27,11.18,19.997,9.096,30.829c-2.565,13.409-8.884,26.348-18.686,35.949c-8.76,8.189-21.711,9.018-33.07,8.01
		c-9.937-1.154-20.725-3.394-28.074-10.698c-3.126-2.957-5.59-8.503-1.714-11.897c4.279-1.927,9.13-1.938,13.656-3.047
		c6.049-0.762,11.718-3.473,16.389-7.338c2.89-2.7,4.335-6.576,5.142-10.362c-1.411-7.427-7.438-12.805-13.712-16.389
		c-5.276-2.263-10.911-3.596-16.524-4.683c-6.621-0.426-13.275-0.269-19.907-0.09c-25.732,3.585-51.05,11.124-74.138,23.144
		c-13.622,7.405-26.225,17.005-35.915,29.216c-6.419,7.92-10.553,17.868-10.967,28.107c0.571,8.077,3.316,16.378,9.298,22.08
		c3.943,3.887,9.769,7.584,15.448,5.198c9.063-3.103,13.521-12.233,18.82-19.459c1.759-2.946,5.713-3.574,8.604-1.938
		c5.926,3.294,10.127,9.757,10.217,16.613c0.448,8.436-5.008,15.818-10.855,21.33c-7.931,6.811-17.05,12.648-27.368,14.955
		c-9.477,2.42-19.324,0.493-28.622-1.781c-12.603-4.268-25.105-10.698-33.204-21.621c-5.579-7.046-8.94-16.143-8.032-25.194
		c0.963-10.262,6.296-19.56,12.692-27.413c15.684-17.89,36.363-30.527,57.547-40.878c32.532-16.311,67.473-27.491,103.086-34.661
		C414.028,41.781,424.782,41.053,435.413,39.35z"/>
	<path fill="#020202" d="M472.068,143.769c0.403-5.12,0.437-11.147,5.108-14.429c11.404,7.864,20.613,18.551,28.869,29.575
		c15.594,20.545,25.867,45.247,28.802,70.912c2.946,16.714,2.028,34.134-2.375,50.512c-2.084-0.795-4.212-1.546-6.016-2.879
		c-28.085-23.738-48.865-57.29-53.548-94.124c-1.311-7.203-0.672-14.552-1.546-21.789
		C470.802,155.61,471.866,149.695,472.068,143.769z"/>
	<path fill="#020202" d="M590.546,132.544c1.848-1.972,4.66-1.837,7.125-2.14c1.714,9.321-0.717,18.652-0.426,28.018
		c-0.594,8.592-1.053,17.185-1.356,25.788c-1.512,9.556,0.067,19.414-2.241,28.869c-7.954,22.842-21.33,43.981-39.601,59.945
		c-3.126,3.081-6.565,5.87-10.508,7.831c-4.526-16.098-5.265-33.193-3.383-49.773c1.647-23.537,10.262-46.121,22.338-66.229
		C570.247,152.81,579.948,142.133,590.546,132.544z"/>
	<path fill="#020202" d="M529.111,141.439c0.526-2.397,3.338-2.554,5.332-2.42c2.409,2.98,3.271,6.834,4.347,10.441
		c2.464,9.836,4.795,19.963,3.809,30.168c-0.269,10.082-2.173,20.03-4.38,29.844c-1.008-0.011-2.005-0.022-3.002-0.034
		c-4.593-13.208-7.719-26.987-9.13-40.923C525.504,159.453,526.008,150.042,529.111,141.439z"/>
	<path fill="#020202" d="M100.827,175.035c24.466-12.569,50.792-23.481,78.687-24.13c15.381,0.381,31.065,4.167,43.712,13.241
		c16.367,11.763,26.449,30.247,32.297,49.168c7.707,26.281,8.637,54.254,5.064,81.286c-2.196,13.029-4.66,26.673-12.603,37.596
		c-6.464,9.69-17.633,14.575-28.085,18.731c-12.468,5.153-26.225,3.159-39.343,3.439c-18.339-1.468-36.251-7.282-52.461-15.885
		c-11.102-6.464-21.509-16.49-23.761-29.664c-3.148-12.95,0.414-26.505,5.949-38.29c5.937-13.645,19.145-22.259,32.23-28.174
		c7.92-2.834,15.829-5.971,24.242-6.99c9.645-2.184,19.772-2.498,29.373,0.067c0.022,0.952,0.067,2.845,0.09,3.798
		c-13.858,6.587-29.261,11.023-40.676,21.789c-7.27,7.64-14.037,16.714-15.135,27.558c-0.818,7.73,1.871,15.829,7.64,21.162
		c12.009,12.3,30.269,15.583,46.793,14.194c6.363-0.448,11.572-4.537,16.378-8.346c12.244-11.046,18.932-26.718,23.783-42.144
		c3.641-10.43,4.391-21.52,5.949-32.375c0.93-15.437-0.527-31.345-6.475-45.729c-5.792-15.986-20.803-26.908-36.531-31.972
		c-4.459-1.714-9.276-1.904-13.992-2.128c-8.76-0.314-17.655,0.56-25.923,3.585c-14.194,5.12-27.189,13.331-38.526,23.234
		c-29.844,25.463-52.26,58.32-71.293,92.331c-6.329,12.67-13.006,25.329-16.972,38.985c-4.459,13.073-6.005,26.886-9.007,40.329
		c-1.871,13.521-4.212,26.998-5.344,40.609c10.418-1.58,21.722-2.229,31.457,2.532c7.45,3.506,14.317,8.772,18.641,15.874
		c1.703,2.353,0.986,5.411,1.12,8.122c-12.177,3.372-25.665,0.347-35.77-7.035c-5.769-4.66-10.609-10.329-15.448-15.908
		c-3.338,23.682-2.229,47.667-2.095,71.517c-0.325,12.3,1.68,24.489,2.465,36.756c3.17,28.398,8.245,56.55,13.835,84.568
		c1.725,10.486,4.369,20.814,5.545,31.401c2.935,19.784,5.5,40.788-1.972,59.922c-4.268,11.718-12.782,21.262-22.371,28.992
		c-5.198,4.302-4.078,11.751-2.397,17.465c4.649,14.238,13.219,26.729,21.599,38.996c1.535,2.14,2.364,4.649,3.069,7.181
		c-6.206-0.616-11.505-4.067-16.949-6.766c-5.937-3.025-11.371-7.102-15.516-12.345c-10.093-12.726-18.361-26.774-26.404-40.844
		c-1.131-2.196-2.924-5.949,0.392-7.147c5.008-2.274,10.642-3.058,15.336-6.105c21.374-11.639,30.841-38.492,26.852-61.692
		c-3.54-25.026-9.22-49.695-13.936-74.519c-2.969-16.277-5.904-32.555-8.626-48.865c-1.77-12.648-3.182-25.329-5.052-37.954
		c-0.829-13.096-2.957-26.124-2.7-39.276c0.358-8.256-1.412-16.401-1.087-24.657c-0.493-11.27,1.524-22.416,1.187-33.675
		c2.442-34.593,8.76-69.198,21.442-101.585c9.096-21.755,20.411-42.738,35.254-61.132c10.564-12.513,21.744-24.657,34.873-34.537
		C86.488,184.457,93.064,178.799,100.827,175.035z"/>
	<path fill="#020202" d="M853.582,163.754c12.323-9.007,27.861-12.468,42.894-12.928c22.674,0.963,44.933,7.416,65.188,17.566
		c29.115,12.67,53.134,34.683,72.682,59.317c32.891,43.623,48.753,97.977,52.954,151.918c1.154,8.727,0.224,17.577,1.524,26.292
		c0.527,11.27,0.515,22.618-0.616,33.854c-0.504,27.077-4.123,53.974-7.831,80.77c-3.898,25.105-8.547,50.086-13.645,74.979
		c-3.887,20.03-8.615,39.993-9.937,60.404c0.448,13.858,3.809,28.006,11.662,39.601c6.027,9.141,16.322,14.496,26.729,16.994
		c2.285,0.717,5.12,0.683,6.71,2.778c0.067,2.801-1.557,5.22-2.823,7.595c-6.621,11.191-13.465,22.26-20.881,32.947
		c-4.492,6.497-9.847,12.636-16.815,16.557c-5.12,2.812-10.161,6.049-15.863,7.483c-1.299-0.784-2.543-1.624-3.73-2.521
		c7.506-11.359,14.944-22.842,20.501-35.31c2.588-6.307,5.265-13.029,4.369-19.985c-0.851-4.828-5.859-6.923-8.906-10.206
		c-9.78-8.592-16.591-20.344-19.268-33.081c-4.044-17.98-1.3-36.554,1.456-54.512c4.347-25.329,9.914-50.434,13.88-75.83
		c11.796-70.161,10.519-142.563-4.627-212.12c-3.327-18.663-10.956-36.24-20.075-52.753c-2.431-4.38-3.82-9.309-6.867-13.342
		c-8.648-13.678-16.524-27.917-26.774-40.508c-2.621-3.058-4.638-6.565-7.17-9.679c-5.702-5.893-10.519-12.569-16.311-18.372
		c-10.037-10.318-20.837-20.109-33.249-27.491c-3.506-2.184-6.71-4.963-10.698-6.229c-5.411-1.904-10.62-4.391-16.143-5.949
		c-5.859-0.963-11.628-3.058-17.633-2.498c-13.656,1.322-27.222,6.027-37.943,14.731c-6.553,5.612-11.852,12.861-14.675,21.061
		c-3.316,8.581-5.635,17.655-5.747,26.908c-0.325,14.25-0.56,28.757,3.114,42.659c4.067,16.513,10.273,33.014,21.206,46.255
		c6.587,7.36,15.807,13.734,26.113,13.129c15.392,0.37,32.05-3.865,42.626-15.728c4.784-4.604,7.136-11.337,6.766-17.913
		c-0.515-9.903-5.803-18.719-11.919-26.214c-6.542-7.775-15.93-12.088-24.713-16.737c-7.114-3.462-14.944-5.456-21.565-9.903
		c2.442-1.613,4.996-3.282,7.965-3.686c17.308-2.487,34.493,2.834,50.311,9.41c8.693,4.145,17.084,9.399,23.705,16.457
		c7.685,10.105,11.639,22.629,13.32,35.098c0.851,11.471-2.577,23.66-10.732,32.028c-11.247,12.244-27.312,18.361-42.895,22.954
		c-10.978,3.417-22.461,4.459-33.854,5.4c-18.339,0.034-37.461-4.526-51.644-16.725c-8.391-7.069-12.256-17.801-15.157-28.04
		c-2.991-13.185-5.288-26.662-4.985-40.228c-0.414-22.103,1.848-44.586,9.701-65.389
		C829.127,188.826,839.086,173.445,853.582,163.754z"/>
	<path fill="#020202" d="M627.078,174.722c2.957-2.229,6.609-3.193,10.206-3.831c0.022,3.529,0.123,7.192-1.389,10.474
		c-7.158,17.487-20.77,31.199-34.93,43.242c-1.58,1.266-3.271,2.375-5.052,3.338c-2.711-1.299-1.714-4.481-0.975-6.665
		C602.219,203.781,611.999,186.664,627.078,174.722z"/>
	<path fill="#020202" d="M431.28,178.844c2.767,0.213,5.702,0.314,8.077,1.96c7.035,4.369,13.387,9.757,19.627,15.168
		c9.175,9.578,16.076,21.038,22.293,32.678c-0.717,0.56-2.14,1.68-2.857,2.241c-13.253-7.696-25.676-17.162-35.546-28.981
		C437.094,195.491,431.246,187.918,431.28,178.844z"/>
	<path fill="#020202" d="M778.592,212.911c4.974-5.612,12.143-10.866,20.097-9.13c5.792,1.949,11.079,6.419,12.961,12.379
		c1.367,5.523-1.176,11.113-4.447,15.448c-4.817,6.464-11.919,10.508-18.238,15.291c-5.332,3.809-11.169,6.811-16.972,9.813
		c-5.22,2.465-10.463,5.31-16.311,5.837c-0.157-3.865,0.358-7.73,2.005-11.259C763.312,237.87,769.07,224.125,778.592,212.911z"/>
	<path fill="#020202" d="M672.011,205.181c6.576-0.818,13.241-1.053,19.84-0.325c-0.022,2.801-0.359,5.691-1.904,8.099
		c-16.557,26.438-39.724,49.672-68.638,62.197c-13.768,6.385-28.499,11.348-43.724,12.412c-7.607,1.255-15.336,1.983-23.044,1.266
		c-0.246-2.845-0.347-5.881,1.535-8.245c5.971-8.839,11.292-18.238,18.999-25.732C599.799,227.161,634.942,208.643,672.011,205.181z
		"/>
	<path fill="#020202" d="M281.121,207.5c5.691-1.938,12.065,0.358,16.322,4.358c4.201,4.066,7.763,8.76,10.721,13.801
		c6.722,10.362,11.74,21.711,16.087,33.238c0.963,2.487,1.187,5.187,0.773,7.819c-6.217,0.045-11.651-3.294-16.961-6.083
		c-11.147-5.814-21.666-13.174-30.012-22.652c-3.842-4.391-6.766-9.892-7.024-15.807C271.195,215.835,275.945,210.603,281.121,207.5
		z"/>
	<path fill="#020202" d="M384.173,208.531c6.005-1.658,12.233-0.302,18.294,0.224c10.374,0.459,20.467,3.137,30.516,5.568
		c20.366,5.534,39.265,15.941,55.397,29.474c8.413,7.293,16.714,14.933,22.831,24.332c4.257,6.385,10.81,12.58,10.362,20.848
		c-16.916,1.725-33.865-1.546-50.098-6.027c-15.952-4.503-31.154-11.595-44.541-21.386c-16.983-13.219-32.218-29.048-42.995-47.779
		C382.773,212.082,382.761,210.088,384.173,208.531z"/>
	<path fill="#020202" d="M667.519,262.124c7.035-1.893,14.418-2.173,21.643-1.4c2.565,0.056,3.977,2.532,5.769,4.01
		c-5.232,6.318-13.085,9.533-20.758,11.751c-7.114,2.005-14.339,3.854-21.755,4.134c-9.231,1.21-18.551,2.095-27.849,1.266
		c-0.347-3.237,2.207-5.131,4.884-6.24C641.686,270.033,654.053,263.984,667.519,262.124z"/>
	<path fill="#020202" d="M385.036,272.307c15.112-3.025,30.997-2.722,45.751,1.994c6.968,2.409,14.306,4.1,20.714,7.898
		c-3.966,4.123-10.138,3.876-15.392,4.615c-10.665,0.571-21.531,1.053-32.028-1.333c-7.259-1.423-15.224-2.431-21.061-7.371
		C382.705,276.049,382.291,272.789,385.036,272.307z"/>
	<path fill="#020202" d="M557.084,298.151c13.208-5.769,27.525-8.245,41.673-10.463c9.982-0.851,20.041-0.437,30.068-0.358
		c28.141,2.711,55.721,12.984,78.003,30.549c2.957,2.353,7.226,5.019,6.251,9.455c-2.151,2.005-5.086,2.789-7.797,3.708
		c-8.525,2.319-17.005,5.064-25.867,5.691c-7.808,1.792-15.807,2.274-23.794,2.028c-29.395,1.176-58.085-9.578-82.619-25.116
		c-4.515-3.294-9.22-6.329-13.656-9.713C557.342,302.666,557.42,300.201,557.084,298.151z"/>
	<path fill="#020202" d="M452.62,289.234c7.999-1.131,16.143-1.266,24.153-0.101c14.619,0.728,29.261,4.022,42.558,10.194
		c0.011,0.93,0.034,2.801,0.034,3.742c-11.527,10.34-24.724,18.999-39.063,24.903c-8.76,4.716-18.35,7.607-27.928,10.105
		c-14.44,2.823-29.25,5.209-43.981,3.473c-15.157-1.311-30.605-3.798-44.44-10.407c-0.022-0.952-0.056-2.868-0.078-3.82
		c4.537-4.212,9.309-8.167,14.653-11.326C400.405,301.042,426.003,290.791,452.62,289.234z"/>
	<path fill="#020202" d="M549.78,309.959c8.749,1.064,16.535,5.534,24.265,9.466c5.232,3.047,10.665,5.747,15.818,8.928
		c33.63,21.778,57.984,57.671,65.008,97.204c0.291,2.207,0.157,4.459,0.123,6.699c-2.509,0.022-5.097,0.302-7.495-0.571
		c-18.719-7.954-36.868-17.913-51.845-31.849c-20.131-19.033-35.96-43.264-42.85-70.274
		C551.102,323.167,549.063,316.658,549.78,309.959z"/>
	<path fill="#020202" d="M514.593,314.316c3.988-1.848,8.301-2.991,12.704-3.182c0.134,2.946,0.392,5.96-0.358,8.861
		c-1.826,6.733-2.913,13.678-5.5,20.187c-3.585,8.973-6.834,18.126-11.583,26.584c-10.194,18.058-23.828,34.336-40.553,46.681
		c-12.468,8.436-25.161,17.308-39.982,21.027c-1.86,0.549-3.495-0.504-4.828-1.658c-0.414-4.739,1.187-9.321,2.274-13.869
		c2.554-10.81,6.296-21.341,11.225-31.3c6.408-14.911,16.311-28.006,27.536-39.612c7.64-8.514,16.849-15.415,26.225-21.89
		C498.876,321.318,506.83,317.969,514.593,314.316z"/>
	<path fill="#020202" d="M524.317,350.714c3.943-11.057,6.61-22.764,13.006-32.767c1.075,0.067,3.215,0.213,4.291,0.291
		c9.914,20.288,16.423,42.11,20.77,64.224c2.801,17.655,4.481,35.501,5.03,53.358c1.344,13.6,0.045,27.222-0.515,40.822
		c-1.916,20.344-5.68,41.057-15.65,59.138c-2.397,4.156-4.705,8.525-8.211,11.875c-1.109,1.244-2.879,1.58-4.47,1.322
		c-3.17-2.969-5.187-6.912-7.248-10.676c-12.502-24.029-17.588-51.184-19.47-77.992c-1.736-20.008,0-40.139,2.61-60.001
		C515.948,383.492,519.69,366.935,524.317,350.714z"/>
	<path fill="#020202" d="M614.755,339.634c3.204-0.504,6.509-0.683,9.668,0.258c11.483,3.036,23.077,6.374,33.44,12.334
		c7.136,3.708,14.115,8.021,19.627,13.958c1.479,1.311,1.96,3.596,0.963,5.344c-7.438,2.151-14.978-1.131-21.935-3.54
		c-8.604-2.33-16.244-7.136-23.559-12.076C626.652,350.77,619.146,346.714,614.755,339.634z"/>
	<path fill="#020202" d="M406.388,372.939c14.149-15.661,33.921-25.262,54.063-30.673c-0.291,2.016,0.381,4.459-1.154,6.117
		c-3.574,4.66-8.279,8.245-12.468,12.323c-8.391,8.458-18.932,14.429-29.642,19.448c-4.123,2.14-8.794,2.218-13.309,1.804
		C403.968,378.798,403.878,375.281,406.388,372.939z"/>
	<path fill="#020202" d="M298.339,352.472c11.527-3.036,23.828,2.028,32.174,10.004c5.926,5.702,7.293,14.384,6.923,22.259
		c0.168,7.158-2.453,14.037-2.263,21.195c-0.078,5.937-0.179,12.67,4.022,17.386c5.512,7.046,14.642,9.152,22.517,12.446
		c10.262,4.279,20.77,8.29,30.09,14.485c4.907,3.204,10.519,6.385,12.524,12.278c-8.144-1.277-14.877-6.341-22.439-9.231
		c-11.393-4.291-23.044-8.234-35.142-9.869c-8.805-1.479-18.103-3.406-25.004-9.489c-4.996-3.854-8.357-9.589-9.701-15.717
		c-2.61-10.306,0.146-21.565-4.75-31.356c-3.921-5.556-9.612-10.945-16.837-11.068c-7.203-0.963-14.014,1.893-21.016,2.946
		c0.437-2.465,0.739-5.086,2.319-7.125C278.287,362.689,287.237,354.802,298.339,352.472z"/>
	<path fill="#020202" d="M786.4,352.069c6.99-1.4,14.138,0.672,20.4,3.742c7.618,3.876,13.477,10.362,18.585,17.073
		c1.456,1.848,1.58,4.291,2.14,6.497c-6.453-1.58-12.816-4.111-19.571-3.708c-9.018-0.235-17.442,6.105-20.389,14.496
		c-3.518,8.2-0.952,17.319-3.092,25.799c-1.501,9.287-7.394,17.935-16.042,21.901c-4.582,1.983-9.287,3.854-14.216,4.772
		c-20.097,2.789-39.803,9.085-57.469,19.145c-1.109-1.042-2.196-2.084-3.271-3.125c13.88-12.67,31.569-19.829,49.011-26.102
		c7.775-2.521,15.908-7.629,17.823-16.143c3.047-15.829-5.803-32.499,1.075-47.857C766.482,359.597,776.15,353.29,786.4,352.069z"/>
	<path fill="#020202" d="M72.048,352.293c3.025,0.101,6.464-0.067,8.816,2.229c8.581,7.819,13.701,19.47,12.973,31.132
		c0.258,2.453-2.913,4.873-5.064,3.383C76.406,381.789,69.102,366.453,72.048,352.293z"/>
	<path fill="#020202" d="M103.919,351.834c1.815,0.493,4.078,0.717,4.929,2.711c3.372,6.117,7.539,12.692,6.273,20.019
		c-0.358,3.652-1.748,9.791-6.722,8.402c-4.279-4.683-6.744-11.102-7.528-17.375C100.088,360.773,102.183,356.192,103.919,351.834z"
		/>
	<path fill="#020202" d="M997.758,361.692c2.028-1.4,4.615-0.975,6.957-1.221c0.896,10.53-1.792,21.598-8.48,29.911
		c-3.294,3.618-7.248,7.875-12.614,7.382c-2.229-4.38-1.266-9.376-0.336-13.958C985.167,375.034,990.107,366.61,997.758,361.692z"/>
	<path fill="#020202" d="M963.501,368.604c1.479-3.249,3.036-8.413,7.618-7.237c3.137,6.946,5.299,15.247,2.845,22.73
		c-1.456,3.652-3.428,8.547-8.167,8.133C963.579,384.668,959.771,376.323,963.501,368.604z"/>
	<path fill="#020202" d="M39.796,368.134c10.138-0.078,19.728,4.806,27.155,11.438c6.318,6.475,12.379,14.384,12.827,23.772
		c-4.615,1.837-9.522-0.034-13.902-1.647c-10.978-5.5-20.209-14.799-24.735-26.304C40.277,373.063,40.087,370.576,39.796,368.134z"
		/>
	<path fill="#020202" d="M142.456,375.818c9.858-2.005,19.918-4.503,30.045-2.789c6.307,1.411,13.477,2.151,17.935,7.438
		c3.876,3.394,3.842,9.085,2.745,13.712c-2.453,8.099-9.466,13.499-15.784,18.585c-5.052,3.518-9.735,8.581-16.277,8.906
		c-1.669-8.447,5.523-15.796,3.54-24.253c-1.21-2.991-2.33-6.688-5.601-7.999c-4.884-2.341-10.463-4.671-15.941-3.103
		c-6.419,1.658-13.398,2.778-18.607,7.226c-7.248,5.232-12.356,12.793-16.49,20.601c-4.492,8.088-4.235,17.857-2.778,26.729
		c2.868,12.435,11.494,22.629,21.374,30.292c7.483,5.422,16.983,7.046,26.046,6.71c5.893-0.078,11.819,0.09,17.7-0.448
		c9.208-2.711,18.742-4.347,27.648-8.032c15.941-5.904,31.199-13.611,47.51-18.484c21.094-7.562,43.712-11.74,66.151-9.892
		c6.553,1.019,13.297,0.639,19.716,2.521c10.564,2.353,20.613,6.531,30.415,11.046c14.933,8.211,29.328,18.092,40.251,31.345
		c1.871,2.151,3.215,4.671,4.604,7.147c-2.498-0.885-5.12-1.658-7.114-3.484c-14.283-12.412-32.644-19.604-51.33-21.834
		c-9.41-1.904-19.044-1.322-28.578-1.199c-10.631,1.602-21.363,2.655-31.815,5.22c-29.922,7.002-57.872,20.187-87.245,28.959
		c-9.735,2.711-19.504,5.523-29.608,6.419c-9.701,2.218-19.716,2.128-29.597,1.669c-17.274-1.322-32.398-11.841-43.611-24.466
		c-9.981-12.345-17.89-27.401-17.935-43.623c-0.37-7.27,1.468-14.384,3.697-21.229c2.7-7.091,7.551-13.107,12.401-18.854
		c4.503-5.344,10.788-8.536,16.333-12.614C121.317,381.845,132.026,378.866,142.456,375.818z"/>
	<path fill="#020202" d="M1004.345,394.011c5.814-8.155,14.754-13.925,24.377-16.457c3.148-1.12,7.237,1.131,6.128,4.817
		c-1.96,7.674-6.934,14.104-12.435,19.627c-6.901,6.318-16.076,11.964-25.833,10.015
		C996.84,405.247,1000.503,399.333,1004.345,394.011z"/>
	<path fill="#020202" d="M339.161,397.473c2.711-9.399,11.595-16.076,21.016-17.734c7.069-1.031,14.149,0.784,20.848,2.924
		c6.105,2.039,12.603,1.792,18.899,2.711c0.459,8.312-5.758,15.392-13.185,18.227c-8.2,3.204-17.151,2.028-25.721,2.42
		c-3.876,0.381-8.111,2.711-8.816,6.867c0.448,5.22,3.182,9.858,4.739,14.787c-6.385,1.311-11.203-3.966-14.451-8.704
		C338.724,412.63,336.372,404.654,339.161,397.473z"/>
	<path fill="#020202" d="M500.018,393.81c3.013-5.31,5.019-11.617,10.329-15.191c1.759,9.276-0.112,18.596-1.154,27.827
		c-1.199,9.298-4.19,18.271-7.741,26.909c-2.386,5.108-4.84,10.519-9.253,14.216c-1.501,1.311-3.775,0.426-4.739-1.087
		c-1.445-2.375-1.58-5.265-1.423-7.965C487.147,422.791,492.333,407.522,500.018,393.81z"/>
	<path fill="#020202" d="M569.06,379.526c5.288,1.176,7.976,6.139,10.822,10.228c8.133,11.662,15.09,24.388,18.697,38.212
		c1.165,5.097,2.42,10.698-0.19,15.594c-2.991,0.963-4.996-1.916-6.811-3.764c-4.817-5.825-8.48-12.502-12.323-18.988
		c-5.12-9.959-7.248-21.106-9.455-31.983C569.093,385.777,568.925,382.641,569.06,379.526z"/>
	<path fill="#020202" d="M714.088,382.876c7.842-1.904,16.109-4.996,24.153-2.319c10.519,2.588,19.683,11.976,19.952,23.144
		c-0.045,8.962-4.391,18.215-12.088,23.077c-2.084,1.423-4.727,1.165-7.102,1.423c0.885-4.47,3.249-8.402,4.761-12.636
		c1.445-3.417-1.087-7.382-4.526-8.211c-8.615-2.89-17.947-0.202-26.673-2.655c-8.962-1.389-17.095-10.026-15.818-19.392
		C702.549,384.747,708.464,384.635,714.088,382.876z"/>
	<path fill="#020202" d="M888.186,386.606c8.738-5.668,19.638-5.624,29.664-5.108c18.876,2.05,37.674,8.099,52.988,19.537
		c11.998,8.503,21.587,21.027,24.612,35.602c1.893,7.495,1.232,15.269-0.011,22.797c-4.257,20.725-18.249,38.75-36.151,49.661
		c-12.435,7.786-27.737,9.713-42.099,8.088c-17.454-1.322-34.56-5.612-51.095-11.247c-25.172-7.808-49.235-19.033-74.979-25.015
		c-10.698-2.397-21.498-4.459-32.42-5.456c-8.973-0.246-17.958-0.157-26.92-0.011c-16.849,2.151-33.742,7.114-47.689,17.117
		c-6.766,4.459-12.065,10.766-18.955,15.067c6.845-13.118,17.913-23.469,29.597-32.286c10.183-6.912,20.691-13.555,32.241-17.98
		c17.23-6.419,35.815-9.377,54.198-8.514c6.721,0.213,13.264,1.927,19.963,2.409c20.232,3.484,39.388,11.169,58.343,18.798
		c11.908,5.422,24.276,9.869,36.868,13.477c14.799,3.663,30.605,4.515,45.393,0.336c10.194-3.887,18.17-12.121,23.85-21.229
		c6.419-10.609,8.839-24.153,4.358-35.96c-2.364-7.629-7.214-14.16-12.625-19.907c-3.876-3.719-7.976-7.573-13.241-9.152
		c-8.435-3.002-18.507-4.694-26.606,0.168c-4.683,2.812-6.262,8.626-5.579,13.779c-0.067,6.822,5.22,12.58,3.932,19.515
		c-7.573-2.308-13.566-7.707-19.694-12.457c-5.859-4.94-12.379-10.452-13.678-18.439
		C881.465,395.008,883.661,389.418,888.186,386.606z"/>
	<path fill="#020202" d="M1005.88,433.78c7.887-20.221,33.115-31.602,53.391-23.559c-6.43,12.11-17.577,22.36-31.311,25.127
		C1020.69,437.78,1012.725,437.242,1005.88,433.78z"/>
	<path fill="#020202" d="M27.294,445.409c12.009-7.147,27.592-8.648,40.396-2.745c1.983,0.952,4.111,1.927,5.456,3.753
		c0.504,2.207-1.602,3.45-3.036,4.671c-10.183,7.371-22.652,13.443-35.557,11.214c-6.195-0.414-12.032-2.722-17.342-5.837
		C17.884,450.954,22.969,447.985,27.294,445.409z"/>
	<path fill="#020202" d="M1003.091,455.233c9.399-6.878,21.867-9.489,33.171-6.565c9.231,2.285,18.036,7.102,23.996,14.642
		c-8.402,7.685-20.725,8.536-31.49,7.181C1019.043,468.027,1009.174,463.512,1003.091,455.233z"/>
	<path fill="#020202" d="M40.849,477.907c8.357-7.304,19.817-10.508,30.773-9.713c3.663,0.549,3.921,5.243,1.804,7.618
		c-5.556,7.192-12.894,13.365-21.621,16.266c-7.226,2.095-14.911,3.921-22.371,1.815C29.008,486.5,35.897,482.131,40.849,477.907z"
		/>
	<path fill="#020202" d="M1004.435,477.033c15.863-2.453,31.49,6.509,40.957,18.798c1.557,1.882,2.285,4.705,0.28,6.576
		c-7.326,2.05-15.011,0.235-21.991-2.229c-7.013-2.689-12.905-7.584-18.327-12.67c-1.871-2.106-4.526-4.425-4.011-7.539
		C1001.31,478.322,1002.856,477.067,1004.435,477.033z"/>
	<path fill="#020202" d="M59.255,503.975c3.898-7.842,10.945-14.216,19.448-16.591c1.871-0.37,3.708,0.414,5.523,0.751
		c-2.543,7.08-4.817,14.474-9.018,20.792c-5.388,5.411-12.244,11.068-20.445,9.892C54.325,513.442,57.003,508.625,59.255,503.975z"
		/>
	<path fill="#020202" d="M87.082,510.305c1.736-7.046,7.259-13.04,14.16-15.336c1.4,7.315,1.311,15.235-2.487,21.845
		c-2.834,4.873-6.733,10.508-12.973,10.631C85.692,521.709,86.309,515.985,87.082,510.305z"/>
	<path fill="#020202" d="M991.597,499.943c-1.031-2.073,0.56-4.044,2.285-5.075c9.556,2.039,18.607,7.999,22.999,16.927
		c2.767,4.459,4.38,9.612,3.361,14.888c-6.184-1.367-11.673-4.66-16.949-8.021C996.672,514.708,993.49,507.079,991.597,499.943z"/>
	<path fill="#020202" d="M975.253,504.793c7.528,0.65,11.987,7.551,14.619,13.914c2.095,4.963,1.77,10.463,1.311,15.706
		c-2.128-0.336-4.694,0.078-6.217-1.77c-3.921-4.436-8.637-8.738-10.138-14.687C973.606,513.643,973.908,509.039,975.253,504.793z"
		/>
	<path fill="#020202" d="M284.056,511.537c1.087-1.008,2.756-2.834,4.291-1.546c3.417,3.35,5.59,7.752,9.063,11.079
		c8.2,7.427,16.972,14.687,22.517,24.444c2.666,4.548,4.123,9.668,6.341,14.44c3.686-5.568,5.792-12.11,10.306-17.117
		c5.388-7.046,12.771-12.267,20.646-16.165c5.59-2.733,11.102-5.926,17.252-7.17c3.719,1.311,2.229,5.411,2.521,8.402
		c0.37,10.732,3.596,21.05,6.296,31.356c1.445,8.738,2.778,17.711,1.109,26.539c3.562-3.45,7.528-6.43,11.415-9.489
		c9.567-8.099,22.495-9.679,34.235-12.659c3.652-0.605,8.839-2.868,10.833,1.714c-0.426,4.436-2.745,8.525-2.61,13.051
		c-0.583,11.27,1.871,22.405,1.546,33.675c-0.325,6.957-2.184,13.79-5.254,20.041c10.396-3.26,21.061-8.223,32.207-5.792
		c7.965,2.017,16.636,0.952,24.018,5.131c-0.672,5.926-3.607,11.449-3.238,17.521c0.28,10.486-1.792,21.464-8.346,29.911
		c-3.865,5.209-9.701,8.29-14.754,12.143c-0.414,1.087-0.751,2.207-1.031,3.361c11.169,5.411,24.141,7.371,33.798,15.628
		c4.817,4.279,10.396,7.573,15.269,11.763c1.535,0.963,1.344,2.789,1.199,4.369c-1.658,1.96-4.078,3.025-6.206,4.369
		c-8.637,4.862-14.866,12.961-23.458,17.879c-7.819,4.492-16.815,6.094-25.262,8.973c6.666,5.624,13.566,11.057,19.224,17.745
		c5.624,6.867,7.898,15.695,12.805,23.01c1.692,2.409,3.002,5.075,3.484,8.01c-12.973,4.952-26.875,6.822-40.62,8.144
		c-7.842,0.919-15.796,0-23.469-1.68c13.633,15.09,13.69,36.688,22.472,54.22c-1.221,1.12-2.297,2.453-3.775,3.226
		c-15.415,3.63-32.174,1.468-46.054-6.229c-4.246-2.42-8.637-4.548-13.051-6.609c0.605,6.666,0.661,13.544-1.355,20.008
		c-3.025,9.914-8.234,19.212-9.533,29.62c-0.471,4.011-1.042,8.021-1.815,11.998c-9.97-1.031-19.604-4.492-28.678-8.648
		c-9.41-4.279-16.669-12.02-22.013-20.714c-0.381,7.27-2.061,14.541-5.288,21.094c-4.727,9.354-11.908,17.106-18.35,25.273
		c-1.658,1.893-3.562,4.526-6.475,3.574c-1.972-1.568-3.394-3.674-4.907-5.669c-4.985-6.901-10.956-13.04-15.796-20.041
		c-4.391-6.005-7.472-12.827-10.295-19.672c-2.532,5.321-5.646,10.452-9.937,14.552c-8.155,8.346-19.425,12.211-29.653,17.274
		c-2.151,0.952-4.257,2.229-6.632,2.487c-2.733-0.403-2.924-3.663-3.54-5.769c-1.199-6.497-3.473-12.748-6.464-18.641
		c-4.212-8.256-6.957-17.342-7.282-26.628c-4.033,3.91-8.234,7.943-13.622,9.892c-8.368,3.137-17.353,3.943-26.068,5.612
		c-6.677,0.952-13.163,3.327-19.974,3.114c-0.392-6.128,0.571-12.233,0.459-18.35c0.123-7.92-0.583-15.941,1.12-23.727
		c1.019-4.907,2.297-9.746,3.506-14.597c-7.506,1.524-14.933,3.574-22.562,4.358c-9.858,0.538-19.201-3.361-28.858-4.649
		c-0.762,12.872-8.637,23.593-14.496,34.593c-14.776,26.651-30.056,53.795-36.375,83.918c10.082-8.66,21.991-15.885,35.366-17.7
		c12.468-1.804,25.598,1.143,36.218,7.864c1.109,2.577-1.21,4.672-2.857,6.329c-10.172,9.892-23.929,16.647-38.279,16.826
		c-10.878,0.134-21.52-2.957-31.333-7.438c-3.092,16.546-2.924,34.795,5.433,49.874c7.125,12.827,19.123,22.439,32.543,28.096
		c19.896,9.309,42.704,10.564,64.146,7.069c29.608-3.898,57.335-16.77,87.178-19.268c12.323-0.773,25.452,2.364,34.795,10.788
		c12.704,11.191,19.694,27.469,23.256,43.712c2.241,13.129,2.33,26.718-0.773,39.724c-3.17,15.572-10.082,29.967-15.572,44.788
		c-2.991,7.741-5.859,15.829-5.411,24.265c0.28,3.887,1.893,7.719,4.638,10.531c2.185,2.431,5.232,4.739,5.153,8.368
		c-0.157,6.99-0.851,14.048-2.565,20.848c-3.854,0.986-6.654-2.341-9.186-4.672c-8.727-9.354-16.412-20.803-17.342-33.921
		c-0.84-9.13,2.845-17.734,5.108-26.393c6.565-23.873,10.9-48.552,10.396-73.377c0.426-8.458-1.647-16.759-4.212-24.735
		c-2.845-7.438-8.503-14.496-16.591-16.356c-8.973-2.532-18.294,0.28-27.155,1.983c-31.502,7.819-61.681,21.24-94.191,24.69
		c-16.434,2.453-33.82,0.134-48.451-7.999c-12.861-7.058-25.15-15.538-35.232-26.27c-11.371-11.953-19.56-27.043-22.696-43.286
		c-3.865-18.764-1.288-38.201,3.831-56.461c4.436-16.49,11.449-32.207,20.243-46.827c7.629-13.163,16.681-25.441,24.265-38.638
		c5.512-9.231,10.161-19.526,10.049-30.482c-0.078-4.537-0.224-9.343-2.431-13.398c-2.487-2.14-6.397-2.297-8.469-5.075
		c-4.795-6.822,3.91-18.383,11.595-13.858c5.232,2.689,5.837,9.365,3.988,14.384c3.753,4.134,7.797,8.01,11.359,12.312
		c2.353-7.707,5.153-15.37,9.466-22.215c2.532-4.044,5.87-7.472,8.816-11.203c-10.183-0.549-20.635-1.725-29.922-6.206
		c-7.371-3.338-13.768-8.38-19.851-13.633c-2.028-1.68-3.305-4.011-4.403-6.352c6.363-3.215,12.771-6.497,18.204-11.18
		c7.674-6.554,15.112-13.376,22.472-20.277c-9.388-5.164-19.828-9.04-27.424-16.905c-5.523-5.041-8.996-11.875-14.731-16.714
		c-1.837-1.311-2.196-3.54-2.565-5.601c9.858-7.069,20.882-12.547,32.443-16.232c7.999-2.543,16.468-2.252,24.69-1.232
		c-12.132-14.877-19.056-33.294-22.954-51.913c-0.683-3.069-0.885-6.217-0.795-9.354c4.94-0.09,9.881,0.325,14.81-0.022
		c8.312-0.515,16.423-2.565,24.679-3.439c6.52-0.65,12.95,0.907,19.291,2.185c-3.596-8.671-6.666-17.61-8.189-26.886
		c-1.299-8.167-2.812-16.457-1.636-24.735c5.108,0.146,10.026,1.703,15.112,2.016c7.125,0.381,14.25,1.143,21.251,2.565
		c9.399,1.949,17.801,7.181,24.814,13.578c-0.022-10.721-1.098-21.834,2.89-32.062c3.305-8.424,5.568-17.196,8.514-25.743
		c6.733,1.848,11.964,6.755,18.26,9.578c7.506,3.394,14.754,7.438,21.195,12.603c4.436,3.764,7.663,8.716,12.054,12.547
		c2.263-7.416,3.999-15.123,8.088-21.811C271.475,526.75,277.29,518.718,284.056,511.537 M274.018,604.541
		c-4.839,0.448-9.735,0.818-14.406,2.274c-37.898,9.914-71.73,35.21-90.987,69.456c-10.53,18.529-17.353,39.78-16.232,61.278
		c0,9.365,3.361,18.316,7.035,26.796c11.281,23.705,31.961,42.144,55.553,53.178c31.02,14.944,67.35,17.42,100.588,9.231
		c21.139-4.974,39.399-17.902,54.859-32.723c15.516-16.109,28.376-35.064,35.904-56.226c5.411-14.742,7.685-30.74,5.556-46.345
		c-1.613-10.418-6.173-20.052-11.527-29.037c-5.5-8.85-12.95-16.221-20.489-23.313c-21.027-17.566-46.871-29.003-73.791-33.731
		C295.426,604.406,284.706,603.734,274.018,604.541z"/>
	<path fill="#020202" d="M321.024,509.285c3.607-1.468,7.898-0.28,11.091,1.714c4.783,4.615,2.095,14.765-4.884,15.403
		c-4.492,0.896-9.533-1.535-11.135-5.915C314.247,516.265,316.554,510.675,321.024,509.285z"/>
	<path fill="#020202" d="M742.621,509.98c3.887-0.997,8.525-1.355,12.065,0.885c3.271,2.498,2.89,7.326,1.904,10.878
		c-3.775,4.302-11.404,6.285-15.874,1.848C737.669,519.558,738.722,513.083,742.621,509.98z"/>
	<path fill="#020202" d="M823.1,509.666c6.262-2.151,13.331,4.94,11.404,11.27c-2.028,6.251-10.979,8.962-15.93,4.459
		c-2.689-2.409-2.633-6.341-2.14-9.612C817.017,512.478,820.299,510.82,823.1,509.666z"/>
	<path fill="#020202" d="M244.769,510.002c4.156-1.983,8.211,1.792,10.945,4.593c4.66,5.31-1.501,13.678-7.887,13.096
		c-7.226,0.907-11.516-9.309-6.968-14.429C241.934,511.929,243.279,510.82,244.769,510.002z"/>
	<path fill="#020202" d="M401.929,534.581c8.48-3.585,15.538,8.884,9.657,15.011c-2.543,3.54-7.248,3.159-11.035,2.565
		c-2.319-0.314-3.204-2.801-4.111-4.604C393.471,542.938,397.056,536.183,401.929,534.581z"/>
	<path fill="#020202" d="M897.204,534.592c5.377-2.442,13.085,1.759,12.379,8.066c0.224,2.857-0.448,6.049-3.058,7.662
		c-4.459,3.641-11.774,1.68-14.026-3.529C890.091,542.344,892.723,536.519,897.204,534.592z"/>
	<path fill="#020202" d="M169.644,534.558c2.924-0.728,6.397-0.65,8.839,1.311c2.901,2.655,3.361,7.024,2.386,10.654
		c-1.21,3.159-4.548,5.433-7.909,5.456c-4.111-0.762-7.909-3.674-9.522-7.562C162.385,540.092,165.623,535.836,169.644,534.558z"/>
	<path fill="#020202" d="M665.043,536.485c3.63-1.456,8.436-1.983,11.292,1.277c2.442,3.988,1.4,10.049-2.599,12.681
		c-3.473,1.423-8.021,2.577-11.102-0.28c-2.778-1.904-2.196-5.624-2.185-8.525C660.203,538.927,662.847,537.314,665.043,536.485z"/>
	<path fill="#020202" d="M957.508,581.407c4.47-1.288,9.892,0.784,11.471,5.377c2.241,4.694-1.613,9.802-5.691,11.953
		c-4.223,1.837-8.85-1.143-11.057-4.716C950.439,589.272,951.985,582.707,957.508,581.407z"/>
	<path fill="#020202" d="M110.248,581.385c4.828-1.356,11.315,1.591,10.788,7.282c0.907,6.094-5.635,13.129-11.796,9.836
		C101.578,595.769,102.53,583.301,110.248,581.385z"/>
	<path fill="#020202" d="M460.025,591.053c5.008-2.353,10.945,2.453,11.292,7.607c0.549,4.94-3.002,10.833-8.346,10.956
		c-3.876-0.437-7.943-2.991-8.906-6.979C452.262,597.987,455.612,592.711,460.025,591.053z"/>
	<path fill="#020202" d="M606.868,591.613c3.35-0.65,7.831-1.221,10.161,1.916c4.279,4.985,2.61,14.283-4.291,15.885
		C603.463,610.937,597.66,595.343,606.868,591.613z"/>
	<path fill="#020202" d="M71.532,645.452c3.809-0.896,9.052-1.165,11.46,2.588c2.901,5.444-0.325,12.67-6.027,14.698
		c-3.585,0.594-7.775-1.143-9.399-4.515C65.73,653.742,66.615,647.536,71.532,645.452z"/>
	<path fill="#020202" d="M993.49,645.464c3.82-0.807,9.231-1.49,11.561,2.509c3.708,4.75,1.423,12.995-4.638,14.406
		c-5.232,1.994-11.348-2.229-11.527-7.763C988.315,650.953,990.185,647.144,993.49,645.464z"/>
	<path fill="#020202" d="M500.455,672.316c2.834-0.751,5.993-0.795,8.805,0.134c4.638,2.397,4.302,8.592,3.282,12.939
		c-3.137,6.139-13.152,6.061-16.199-0.134C493.454,680.796,495.593,674.321,500.455,672.316z"/>
	<path fill="#020202" d="M565.43,673.313c2.901-0.695,6.016-0.683,8.906,0.078c2.98,1.882,3.798,5.814,3.417,9.108
		c-0.258,4.347-4.593,7.147-8.525,7.797c-4.638-0.179-9.074-4.022-9.332-8.772C559.493,677.895,561.845,674.209,565.43,673.313z"/>
	<path fill="#020202" d="M53.642,727.208c6.43-2.7,15.067,3.013,13.297,10.25c-0.84,6.072-9.175,8.324-13.342,4.033
		C48.522,738.635,48.343,729.886,53.642,727.208z"/>
	<path fill="#020202" d="M1011.179,726.592c5.041-2.095,12.916,1.546,12.603,7.573c1.053,8.704-13.04,12.872-17.308,5.478
		C1003.785,734.983,1006.003,728.385,1011.179,726.592z"/>
	<path fill="#020202" d="M499.313,754.968c6.117-2.397,12.883,4.481,11.404,10.62c-0.885,7.259-11.639,9.937-15.885,3.954
		C490.653,764.715,493.566,756.951,499.313,754.968z"/>
	<path fill="#020202" d="M567.547,755.697c5.568-2.812,13.577,2.285,12.603,8.682c0.291,7.114-9.713,11.203-14.81,6.385
		C559.974,766.989,561.924,758.116,567.547,755.697z"/>
	<path fill="#020202" d="M531.845,783.938c2.095-3.394,3.226-8.503,7.999-8.794c21.935,41.181,44.788,81.857,67.518,122.589
		c6.486,12.188,13.678,23.996,19.56,36.498c7.27,15.56,11.124,32.611,11.852,49.739c0.034,11.483-2.297,23.032-6.934,33.552
		c-4.996,9.332-11.393,18.585-21.229,23.29c-7.92,3.394-16.927,5.713-25.463,3.349c-12.244-2.991-22.439-11.483-29.799-21.453
		c-6.789-8.167-10.037-18.462-15.639-27.345c-1.535-0.683-3.249-0.784-4.873-0.515c-1.792,1.143-2.453,3.35-3.529,5.097
		c-5.433,11.427-11.796,22.64-20.691,31.759c-5.993,5.937-13.454,10.956-21.879,12.468c-7.069,0.415-14.72,1.344-21.251-2.039
		c-7.002-3.338-13.197-8.469-17.196-15.168c-8.436-11.752-11.035-26.516-11.572-40.676c0.034-21.89,6.71-43.287,16.658-62.633
		C479.719,876.471,505.676,830.137,531.845,783.938z"/>
	<path fill="#020202" d="M601.188,830.283c6.43-1.087,12.491,6.005,9.533,12.132c-2.128,6.721-12.67,8.021-15.964,1.647
		C591.005,838.875,594.971,830.989,601.188,830.283z"/>
	<path fill="#020202" d="M466.892,831.146c3.45-0.639,7.797-1.042,10.374,1.871c2.89,2.532,2.465,6.822,1.837,10.228
		c-2.913,6.397-12.805,6.329-16.255,0.482C461.224,839.267,462.411,833.442,466.892,831.146z"/>
	<path fill="#020202" d="M951.806,859.914c3.383-1.468,7.259,0.538,9.623,3.013c2.655,2.431,2.039,6.475,1.557,9.668
		c-2.543,7.08-14.462,7.08-16.804-0.202C943.504,867.464,947.078,861.785,951.806,859.914z"/>
	<path fill="#020202" d="M115.771,860.272c2.689-0.325,5.758-0.616,8.122,0.997c5.635,3.607,4.716,14.07-1.938,15.986
		c-4.223,1.77-9.757-0.358-11.561-4.615C107.773,868.024,111.122,861.953,115.771,860.272z"/>
	<path fill="#020202" d="M972.497,904.813c8.794-17.823,31.244-27.099,50.187-21.33c-0.179,2.722,0.448,5.814-1.322,8.167
		c-9.354,14.093-27.289,21.509-43.892,19.257C974.479,910.639,970.626,908.197,972.497,904.813z"/>
	<path fill="#020202" d="M402.87,883.439c2.722-1.333,6.229-1.277,8.805,0.403c6.262,3.361,4.94,14.563-2.028,16.367
		c-6.173,2.24-12.704-3.753-11.998-10.004C398.198,887.304,400.17,884.671,402.87,883.439z"/>
	<path fill="#020202" d="M661.682,883.473c5.769-2.98,15.448,1.378,14.082,8.671c-0.101,6.128-7.584,10.542-13.006,7.595
		C656.35,897.185,655.095,886.486,661.682,883.473z"/>
	<path fill="#020202" d="M72.025,902.024c13.914-3.271,29.306-0.134,40.284,9.175c4.952,4.526,10.161,9.791,10.799,16.86
		c-18.775,6.688-41.181-2.409-50.871-19.604C71.017,906.471,71.846,904.141,72.025,902.024z"/>
	<path fill="#020202" d="M183.491,905.407c6.699-1.714,13.365,6.061,10.239,12.368c-2.196,6.71-13.073,7.472-16.288,1.277
		C174.809,913.832,177.284,906.449,183.491,905.407z"/>
	<path fill="#020202" d="M940.592,904.903c12.345-4.537,27.043,6.71,26.023,19.784c-0.818,10.867-12.166,19.201-22.786,17.308
		c-6.195-1.143-11.875-5.12-14.552-10.889c-3.843-6.688-2.599-15.74,2.767-21.218C934.542,907.704,937.477,906.023,940.592,904.903z
		"/>
	<path fill="#020202" d="M884.635,906.281c3.674-0.627,8.436-1.064,10.687,2.633c4.302,4.335,1.748,12.188-3.831,13.958
		c-3.943,0.807-8.693,0.358-11.259-3.114C876.457,915.266,878.675,907.457,884.635,906.281z"/>
	<path fill="#020202" d="M732.381,918.727c4.1-1.131,8.783,0.594,10.889,4.358c0.795,2.812,0.784,5.915,0.045,8.749
		c-1.972,3.383-6.094,5.702-10.037,4.795c-2.991-1.311-6.094-3.316-7.114-6.598C724.741,925.449,727.419,919.646,732.381,918.727z"
		/>
	<path fill="#020202" d="M333.593,919.623c5.747-3.686,14.238,1.557,13.432,8.346c-0.045,7.024-9.589,11.247-14.731,6.307
		C327.365,930.602,328.104,922.334,333.593,919.623z"/>
	<path fill="#020202" d="M978.389,928.406c9.533-4.985,20.389-8.391,31.244-7.416c11.83-0.347,23.245,4.414,32.443,11.639
		c3.585,2.745,8.301,5.601,8.727,10.575c-9.164,6.049-20.277,8.424-31.132,8.772c-11.057-0.695-22.282-3.764-31.244-10.474
		C983.934,938.275,978.008,934.735,978.389,928.406z"/>
	<path fill="#020202" d="M253.865,921.46c5.601-2.778,13.689,2.252,12.659,8.727c0.661,7.495-9.881,11.617-14.821,6.251
		C246.83,932.473,247.984,923.791,253.865,921.46z"/>
	<path fill="#020202" d="M813.802,920.8c5.758-1.188,11.953,4.459,10.542,10.396c-0.224,7.808-11.774,10.609-15.919,4.212
		C803.686,930.512,807.282,921.707,813.802,920.8z"/>
	<path fill="#020202" d="M144.181,923.298c9.096-2.117,19.582,3.406,22.349,12.491c4.134,10.956-4.817,23.705-16.098,25.127
		c-10.508,2.005-21.845-6.341-22.159-17.218C127.355,934.03,134.916,925.225,144.181,923.298z"/>
	<path fill="#020202" d="M903.892,961.106c6.329-5.96,14.81-9.69,23.492-10.43c2.061,17.913-11.247,35.658-28.611,39.601
		c-2.588,0.661-6.161-0.84-5.008-3.999C896.219,977.63,898.336,968.377,903.892,961.106z"/>
	<path fill="#020202" d="M966.907,950.867c5.59-0.638,10.754,2.073,15.706,4.291c9.601,4.593,18.417,11.561,23.537,21.05
		c5.579,9.444,9.208,20.4,8.447,31.479c-6.923,1.826-13.488-1.636-19.403-4.828c-8.088-4.649-15.538-10.743-20.478-18.764
		c-5.747-8.256-8.29-18.227-9.298-28.107C965.226,954.093,965.137,952.043,966.907,950.867z"/>
	<path fill="#020202" d="M376.74,982.712c1.122-0.114,2.236-0.273,3.376-0.384c3.051-0.296,6.048-0.614,9.067-1.262
		c1.494-0.315,2.977-0.689,4.447-1.103c1.52-0.428,3.031-1.106,4.566-1.448c2.773-0.617,5.492-1.899,7.889-3.44
		c-3.148-5.187-8.189-8.727-13.522-11.393c-23.536-13.185-52.943-15.067-77.925-4.817c-0.034,1.512-0.067,3.025-0.101,4.559
		c7.416,5.601,15.538,10.318,24.231,13.6c6.423,2.866,13.336,4.494,20.31,5.277c3.499,0.393,7.019,0.577,10.539,0.606
		c1.755,0.015,3.51-0.009,5.264-0.065C375.507,982.823,376.125,982.775,376.74,982.712z"/>
	<path fill="#020202" d="M414.666,987.892c-2.921,0.544-5.285,2.334-7.365,4.365c-1.143,1.115-2.198,2.318-3.41,3.361
		c-1.15,0.989-2.234,2.055-3.244,3.186c-1.785,1.998-3.341,4.202-4.622,6.556c-1.365,2.508-2.874,4.919-4.337,7.371
		c-1.748,2.929-3.398,5.931-4.664,9.104c-0.915,2.291-1.622,4.668-2.023,7.105c-0.582,7.7-0.454,15.428-0.459,23.144
		c-0.002,3.823-0.146,7.644-0.337,11.461c-0.189,3.783-0.55,7.533-0.243,11.311c0.034,0.424,0.075,0.847,0.121,1.27
		c6.553-2.453,11.337-7.786,15.336-13.309c6.957-8.794,11.427-19.224,14.933-29.776
		C417.971,1018.329,419.875,1002.477,414.666,987.892z"/>
	<path fill="#020202" d="M395.84,1002.591c0.53-0.549,1.048-1.109,1.555-1.679c1.612-1.813,3.257-3.699,4.368-5.839
		c0.684-1.317,1.486-2.568,2.253-3.837c1.505-2.491,2.909-5.16,2.832-8.153c-0.007-0.28-0.026-0.56-0.057-0.838
		c-7.171-0.934-14.606-0.399-21.546,1.625c-1.599,0.466-3.176,1.009-4.723,1.626c-0.731,0.292-1.467,0.707-2.226,0.902
		c-0.779,0.2-1.558,0.391-2.327,0.657c-3.29,1.14-6.551,2.372-9.725,3.807c-3.169,1.432-6.248,3.074-9.135,5.016
		c-7.663,6.038-14.922,12.704-20.926,20.433c-3.843,4.795-8.391,9.959-7.427,16.591c20.064-0.302,40.072-7.203,55.755-19.795
		c2.621-2.116,4.794-4.75,7.384-6.867C393.281,1005.106,394.594,1003.881,395.84,1002.591z"/>
	<path fill="#020202" d="M684.967,982.536c2.641,0.753,5.235,1.665,7.888,2.372c1.37,0.366,2.758,0.664,4.157,0.894
		c0.56,0.092,1.137,0.273,1.695,0.314c0.724,0.053,1.461,0.034,2.186,0.051c2.913,0.068,5.827,0.136,8.74,0.204
		c1.375,0.032,2.743-0.019,4.119-0.077c2.776-0.118,5.544-0.291,8.275-0.838c0.081-0.016,0.173-0.024,0.25-0.051
		c10.127-3.574,19.492-8.895,29.362-13.085c5.243-2.789,11.225-4.582,15.471-8.928c-8.402-5.198-18.451-6.027-27.939-7.719
		c-10.004-1.535-20.03,0.392-29.765,2.61c-13.365,3.719-26.08,10.194-36.487,19.425c0.045-0.04,2.891,1.746,3.188,1.899
		c1.112,0.573,2.263,1.074,3.443,1.49c1.649,0.58,3.395,0.873,5.079,1.343C684.742,982.472,684.854,982.504,684.967,982.536z"/>
	<path fill="#020202" d="M719.522,995.268c4.794,1.89,9.653,3.899,14.648,5.208c0.027,0.007,0.054,0.014,0.08,0.021
		c5.29,1.378,10.748,2.155,16.219,2.137c1.231-0.004,2.462-0.048,3.69-0.134c-1.008-2.588-1.568-5.893-4.47-7.024
		c-4.415-2.444-9.336-3.782-14.328-4.367c-5.01-0.587-10.074-0.46-15.097-0.134c-0.676,0.044-1.353,0.092-2.029,0.142
		c-0.544,0.041-1.541-0.064-2.002,0.196c0.374,0.941,0.466,2.315,1.26,3.017c0.286,0.253,0.65,0.397,1.006,0.536
		C718.84,994.999,719.181,995.133,719.522,995.268z"/>
	<path fill="#020202" d="M719.41,996.634c-1.641-0.963-3.324-1.865-5.055-2.716c-0.807-0.397-1.62-0.781-2.444-1.141
		c-2.165-0.944-4.438-1.609-6.666-2.387c-2.589-0.905-5.121-1.909-7.744-2.71c-2.665-0.813-5.365-1.512-8.09-2.094
		c-2.63-0.561-5.282-1.014-7.949-1.356c-2.17-0.278-4.857-0.431-6.789,0.805c-0.698,0.446-1.194,1.117-1.496,1.882
		c-0.526,4.671,3.17,8.413,5.68,11.953c7.147,9.892,16.188,18.585,26.965,24.41c5.108,2.89,10.172,6.117,15.975,7.461
		c9.746,2.465,19.638,6.117,29.843,4.223c-0.302-9.108-7.427-15.549-12.928-22.013c-3.315-4.007-7.155-7.549-11.219-10.782
		C724.904,1000.111,722.219,998.283,719.41,996.634z"/>
	<path fill="#020202" d="M947.403,957.454c2.05-1.613,5.276-0.594,6.229,1.804c5.108,9.668,6.878,21.106,5.008,31.882
		c-2.229,10.642-7.999,20.467-15.784,28.006c-2.028,2.162-6.766,2.666-7.808-0.672c-2.722-5.366-4.235-11.259-5.243-17.162
		c-1.96-11.303,1.154-23.201,7.528-32.633C940.088,964.489,943.045,960.143,947.403,957.454z"/>
	<path fill="#020202" d="M106.361,976.924c6.397-3.775,13.499-7.382,21.15-6.856c-0.493,7.797-3.887,14.967-5.993,22.394
		c-1.938,5.377-3.025,11.18-6.027,16.109c-6.318,8.155-15.493,13.667-24.97,17.431c-3.058,1.333-6.43,1.3-9.701,1.277
		c-1.792-7.349,0.28-14.81,2.666-21.755C87.418,993.661,96.044,983.769,106.361,976.924z"/>
	<path fill="#020202" d="M167.628,970.875c7.775-0.997,15.067,2.823,20.994,7.495c7.528,6.083,11.998,15.291,13.589,24.724
		c0.448,2.173-0.28,4.335-0.728,6.464C182.079,1009.591,165.253,990.087,167.628,970.875z"/>
	<path fill="#020202" d="M142.366,975.076c2.05,0.37,4.324,0.526,5.837,2.162c9.645,8.928,16.692,21.397,17.028,34.761
		c0.09,8.872-1.613,17.98-5.915,25.822c-1.568,3.54-6.419,1.692-8.402-0.56c-9.242-9.343-15.684-22.013-15.885-35.322
		C135.264,992.541,138.356,983.478,142.366,975.076z"/>
	<path fill="#020202" d="M327.152,994.266c10.161-4.851,21.386-8.626,32.79-7.73c1.893,0.403,5.142,0.19,5.444,2.733
		c-11.718,5.612-24.399,11.102-37.697,10.149C327.51,997.683,327.32,995.969,327.152,994.266z"/>
	<path fill="#020202" d="M665.85,991.151c4.055,2.834,7.002,6.856,9.489,11.079c6.486,9.175,13.286,18.159,19.481,27.536
		c3.708,11.55,6.072,23.895,4.582,36.05c-0.19,5.176-1.311,10.295-3.585,14.978c-7.898-5.556-13.746-13.465-19.156-21.33
		c-11.639-17.319-16.053-38.929-13.824-59.541C663.239,996.82,664.584,993.963,665.85,991.151z"/>
	<path fill="#020202" d="M368.545,1032.892c5.064-6.049,10.519-12.267,17.947-15.415c-2.173,8.436-6.856,15.829-11.572,23.044
		c-3.238,4.828-7.338,9.332-13.017,11.214C360.267,1044.621,365.073,1038.572,368.545,1032.892z"/>
	<path fill="#020202" d="M693.867,1021.163c7.158,1.949,11.875,7.954,16.714,13.163c3.305,4.347,6.453,8.94,8.492,14.059
		c1.188,2.319,0.022,4.828-0.381,7.203C706.627,1047.624,697.844,1035.009,693.867,1021.163z"/>
	<path fill="#020202" d="M737.199,1085.331c3.686,4.167,5.209,9.612,7.349,14.642c3.618,9.388,7.416,18.708,11.281,28.006
		c1.266,2.666,1.277,5.635,1.221,8.536c-3.417,0.672-7.08,0.773-10.138,2.61c-2.935,1.759-5.612,3.932-8.648,5.523
		c-1.076-7.147-0.807-14.362-0.93-21.554C736.661,1110.537,735.148,1097.811,737.199,1085.331z"/>
	<path fill="#020202" d="M84.505,1113.741c0.179-11.662,11.662-21.957,23.346-20.064c8.94,1.535,17.129,6.173,24.052,11.908
		c6.878,6.957,10.418,16.423,13.589,25.497c10.452,33.193,13.208,68.167,14.922,102.727c0.101,10.463,0.067,20.926,0.022,31.401
		c-0.448,17.185-2.778,34.291-2.297,51.509c-0.571,20.848,5.254,41.998,17.017,59.284c11.886,17.532,30.605,29.956,50.96,35.4
		c9.309,2.924,19.067,3.462,28.679,4.839c6.778,0.762,13.555-0.101,20.221-1.355c13.779-1.064,27.099-4.974,40.564-7.887
		c8.928-1.871,17.633-4.638,26.427-7.069c26.774-6.822,53.873-14.53,81.767-13.734c16.781,0.482,33.91,5.803,46.457,17.297
		c13.477,12.009,21.184,28.947,26.953,45.718c3.921,11.953,6.52,24.332,7.92,36.834c0.302,2.655-0.235,5.31-0.795,7.909
		c-3.305-7.931-4.963-16.423-8.211-24.365c-4.94-13.69-11.931-26.819-21.8-37.607c-7.338-8.357-17.263-14.675-28.331-16.501
		c-26.001-2.229-51.072,6.397-76.166,11.695c-31.905,7.842-64.269,15.303-97.283,15.717c-22.797-1.423-45.74-5.971-66.364-16.132
		c-15.504-7.282-29.799-17.767-39.971-31.692c-14.306-18.708-21.027-42.223-22.797-65.445c-1.255-11.012-1.098-22.136,0.045-33.137
		c1.389-28.298,3.887-56.696,1.557-85.016c-0.347-16.546-2.263-33.07-5.579-49.291c-2.969-13.779-7.326-27.749-16.199-38.951
		c-5.12-6.173-12.76-10.777-20.96-10.654C96.29,1112.262,90.442,1113.741,84.505,1113.741z"/>
	<path fill="#020202" d="M702.695,1092.915c1.557,1.3,3.036,2.801,3.764,4.761c6.385,14.967,14.631,29.104,20.265,44.384
		c1.255,3.204-3.047,2.969-4.985,3.238c-6.318,0.168-11.135,4.739-16.905,6.565c-2.431-1.243-1.837-4.291-2.128-6.52
		c0.011-5.243-1.064-10.407-1.109-15.65c-0.258-9.018,0.414-18.059-0.627-27.043
		C700.499,1099.278,701.485,1096.007,702.695,1092.915z"/>
	<path fill="#020202" d="M961.216,1097.923c6.307-3.238,13.712-5.657,20.781-3.596c6.778,1.781,11.83,7.495,14.418,13.824
		c1.019,2.128-0.146,4.38-0.829,6.43c-9.287-2.442-20.03-3.786-28.6,1.524c-7.17,4.022-11.819,11.146-15.516,18.26
		c-5.893,12.065-8.861,25.284-11.012,38.458c-5.635,34.605-4.347,69.803-3.462,104.699c1.098,14.944,2.599,29.9,1.949,44.9
		c-1.109,19.806-4.828,39.848-14.003,57.604c-8.962,17.655-23.268,32.476-40.52,42.189c-18.305,10.564-38.996,16.333-59.788,19.492
		c-28.062,3.137-56.371-1.456-83.705-7.741c-27.48-5.624-54.433-13.79-82.204-17.991c-7.965-0.919-16.053-2.274-23.985-0.358
		c-12.356,2.196-22.853,10.474-29.922,20.579c-12.883,18.776-18.227,41.405-21.8,63.563c-2.913,19.515-4.851,39.231-4.795,58.97
		c-0.123,7.416-1.176,14.888-0.157,22.293c1.636,4.38,5.276,7.629,8.682,10.687c13.79,11.561,35.411,11.169,49.493,0.314
		c6.296-5.007,11.886-11.382,14.664-19.022c3.562-14.138-5.545-29.059-18.182-35.198c-4.033-2.252-8.772-1.949-13.197-1.624
		c-2.229,9.276,4.828,17.241,7.024,25.844c0.885,3.663,1.893,9.152-2.274,11.18c-6.722,3.719-15.404,5.96-22.629,2.308
		c-6.923-3.428-10.43-11.046-11.483-18.361c-1.535-10.956-0.639-23.044,5.949-32.319c3.876-5.859,10.071-9.735,16.457-12.379
		c18.495-7.472,40.576-1.4,54.366,12.536c7.943,7.427,15.011,16.893,15.986,28.073c0.403,10.127-4.963,19.604-12.076,26.472
		c-11.55,12.278-26.528,20.501-41.326,28.174c-10.698,5.153-21.576,9.97-32.678,14.205c-9.578,3.361-20.546,5.545-30.146,1.064
		c-7.887-3.058-12.681-10.721-15.191-18.428c-3.63-11.337-4.089-23.492-2.789-35.243c1.983-23.906,8.234-47.196,15.28-70.027
		c8.189-24.724,17.79-49.022,29.563-72.256c8.749-17.095,23.514-31.669,42.211-37.226c25.015-7.338,51.263-2.117,76.132,3.092
		c28.286,6.621,56.001,15.717,84.68,20.602c8.548,1.658,17.252,2.095,25.956,1.893c23.122,0.795,46.905-5.624,65.434-19.773
		c18.249-13.611,29.855-34.885,33.91-57.077c4.145-21.643,0.818-43.623-0.235-65.389c-1.557-28.443,0.067-56.954,3.047-85.251
		c2.039-17.129,4.996-34.201,9.668-50.826c2.89-9.746,6.318-19.571,12.334-27.883
		C950.271,1104.039,955.838,1100.858,961.216,1097.923z"/>
	<path fill="#020202" d="M496.21,1114.503c1.983-6.766,3.069-13.925,6.744-20.041c5.388,13.6,7.853,28.163,11.09,42.379
		c2.005,6.24,4.235,12.726,3.137,19.38c-9.007-1.949-18.439-3.204-27.435-0.381c-3.988,0.795-3.125-4.223-2.778-6.654
		C489.678,1137.535,493.33,1126.12,496.21,1114.503z"/>
	<path fill="#020202" d="M564.265,1098.584c0.336-2.655,2.442-3.775,4.862-4.179c3.462,13.006,7.853,25.743,11.079,38.817
		c1.546,6.475,4.638,12.704,4.324,19.504c-5.478-0.168-10.81-1.837-16.311-1.58c-4.123,0.101-8.122,1.311-12.233,1.378
		c-1.21-0.683-2.173-1.602-2.901-2.756c-0.19-5.377,1.882-10.486,2.946-15.684C559.213,1122.356,561.195,1110.335,564.265,1098.584z
		"/>
	<path fill="#020202" d="M334.4,1095.313c0.963,0.997,3.159,1.4,3.025,3.114c0.112,12.995,0.112,26.012-0.527,39.007
		c-0.358,4.358-0.437,8.805-1.669,13.04c-3.17,0-5.624-2.24-8.323-3.54c-3.148-1.703-6.778-1.983-10.217-2.677
		c-0.123-4.347,1.187-8.525,2.913-12.457C324.732,1119.723,329.045,1107.299,334.4,1095.313z"/>
	<path fill="#020202" d="M366.507,1109.428c1.524-3.462,3.26-6.845,5.568-9.847c2.128,9.5,0.963,19.302,1.21,28.958
		c-0.392,10.979,0.739,22.147-1.613,32.969c-3.865-1.983-7.203-4.862-11.079-6.822c-3.798-0.964-7.775-0.874-11.651-1.232
		c-0.37-3.058-0.134-6.195,1.367-8.94C355.864,1132.886,360.984,1121.067,366.507,1109.428z"/>
	<path fill="#020202" d="M624.512,1108.274c0.359-2.465,1.4-4.716,2.61-6.845c5.03,7.674,6.766,16.849,9.925,25.351
		c2.98,7.741,4.47,15.964,7.584,23.649c1.243,3.226,1.624,6.677,1.512,10.116c-3.394-0.011-6.733-0.616-10.015-1.4
		c-6.912-1.557-13.253,4.078-20.187,2.409c-0.616-2.924-0.392-5.937,0.179-8.839
		C618.945,1137.905,621.745,1123.095,624.512,1108.274z"/>
	<path fill="#020202" d="M666.085,1137.535c1.86-12.031-0.963-25.038,4.75-36.296c6.005,10.754,8.85,22.876,13.544,34.201
		c2.364,6.329,5.422,12.603,5.702,19.481c-5.747,1.064-11.964,0.224-17.252,3.125c-2.42,1.367-5.209,1.445-7.898,1.568
		C664.326,1152.222,665.715,1144.895,666.085,1137.535z"/>
	<path fill="#020202" d="M402.803,1107.736c0.403-0.045,1.21-0.134,1.613-0.179c1.591,4.963,1.4,10.261,2.084,15.392
		c0.414,7.864,1.445,15.695,1.68,23.581c0.594,6.576,1.568,13.241,0.146,19.806c-7.595-2.464-15.146-5.971-23.346-4.817
		c-0.09-2.901-0.358-5.904,0.65-8.682c4.145-11.785,8.805-23.391,12.805-35.232C399.688,1114.234,400.618,1110.649,402.803,1107.736
		z"/>
	<path fill="#020202" d="M444.891,1111.781c0.829,0.067,2.476,0.213,3.305,0.28c2.946,11.886,4.985,23.973,7.326,35.994
		c0.941,6.979,3.338,13.757,3.428,20.848c-0.358,0.448-1.098,1.355-1.468,1.815c-4.044,0.011-7.629-2.117-11.539-2.812
		c-5.713-0.796-11.415,0.426-16.983,1.546c-0.471-2.89-0.784-5.892,0.258-8.693C434.349,1144.402,439.289,1127.979,444.891,1111.781
		z"/>
	<path fill="#020202" d="M1081.912,932.809c-4.559-25.755-14.294-50.467-28.006-72.716c-9.141-15.796-20.053-30.594-27.805-47.163
		c-4.851-10.037-6.811-21.52-5.019-32.555c1.165-5.96,4.347-11.203,6.352-16.871c-2.577,0.672-5.108,1.501-7.629,2.341
		c-5.097-4.291-11.864-5.915-16.871-10.374c-8.828-7.304-17.666-14.687-25.687-22.876c12.379-6.453,26.113-12.502,34.056-24.612
		c2.677-4.134,6.71-7.114,9.612-11.046c1.434-2.845-1.434-4.963-3.428-6.441c-10.396-6.363-21.486-11.942-33.462-14.552
		c-6.386-1.535-12.928-0.448-19.347,0.09c8.435-10.766,14.709-23.111,18.708-36.184c2.42-8.155,5.299-16.513,4.481-25.138
		c-11.751,0.818-23.38-0.941-34.93-2.812c-7.752-1.49-15.65-0.28-23.234,1.501c3.652-9.668,6.991-19.526,8.492-29.788
		c0.93-7.091,2.252-14.261,1.21-21.419c-4.739-0.347-9.332,0.975-13.981,1.546c-11.516,0.582-23.458,1.434-33.955,6.632
		c-4.851,2.263-8.928,5.792-13.118,9.063c0.123-6.251,0.426-12.524-0.146-18.753c-1.4-13.219-8.346-24.926-10.9-37.876
		c-4.492,0.661-8.536,2.812-12.3,5.232c-7.92,4.985-16.759,8.324-24.455,13.678c-5.881,4.145-10.228,9.948-15,15.224
		c-1.367-3.45-2.577-6.945-3.708-10.474c-3.562-11.807-10.99-22.002-19.223-30.997c-2.297-2.509-4.358-5.601-7.853-6.453
		c-3.249,6.598-8.413,11.931-13.97,16.636c-11.404,8.85-19.907,21.374-23.671,35.344c-3.484-5.96-6.016-12.48-10.071-18.081
		c-8.223-10.273-20.366-16.132-32.118-21.397c-2.61-1.221-5.545-0.851-8.323-0.874c-0.571,6.117-0.112,12.368-1.759,18.35
		c-3.462,14.933-8.48,30.202-6.083,45.706c-5.332-3.596-10.049-8.021-15.415-11.55c-12.715-7.707-28.264-7.315-41.729-12.939
		c5.657-11.09,10.004-23.032,11.494-35.456c1.143-8.895,2.801-17.823,2.14-26.83c-0.661,0.067-1.972,0.202-2.633,0.269
		c-2.274,4.626-4.582,9.388-8.267,13.096c-5.153,5.534-11.796,9.332-18.294,13.051c-15.045,8.088-30.729,14.866-45.986,22.528
		c-7.73,4.1-14.283,10.374-18.753,17.89c-3.226,5.332-4.571,11.505-7.461,16.994c-3.708-8.615-7.046-17.711-13.6-24.646
		c-4.033-4.66-9.287-7.954-14.552-11.012c-18.115-9.119-37.192-16.602-54.142-27.85c-6.923-4.257-12.3-10.586-15.986-17.778
		c-0.583-0.033-1.759-0.101-2.341-0.134c-1.546,11.393,0.717,22.752,2.633,33.932c1.524,7.136,4.223,13.958,7.282,20.557
		c2.689,4.772,5.836,9.634,10.609,12.558c11.942,7.046,24.13,13.689,36.823,19.279c11.527,6.419,24.366,10.15,35.557,17.218
		c2.644,1.86,4.459,4.604,6.778,6.822c2.184,0.067,3.204-2.33,4.705-3.54c3.428-4.067,8.469-6.038,13.129-8.312
		c10.06-4.996,20.59-8.94,30.538-14.182c8.178-3.495,15.594-8.469,23.637-12.244c5.646-2.588,10.34-6.71,15.504-10.071
		c3.025,7.551,4.75,15.583,4.772,23.727c-0.762,9.746-2.464,19.492-1.692,29.283c0.426,6.105,3.193,11.639,5.467,17.218
		c-6.005-2.745-12.39-4.391-18.708-6.206c-6.531-1.68-13.275-0.179-19.728,1.131c-6.027,0.919-13.331-0.202-18.025,4.492
		c0.168,3.618,1.882,6.957,2.599,10.486c1.848,6.363,0.437,13.085,1.837,19.526c1.423,6.016,3.215,12.244,7.383,16.994
		c3.428,4.447,8.2,7.472,12.636,10.81c1.232,1.019,2.935,1.949,2.879,3.809c-5.993,4.335-13.376,5.803-20.209,8.267
		c-4.66,1.613-8.704,4.515-12.446,7.674c-5.78,4.313-11.953,8.211-17.129,13.275c-1.131,0.93-0.448,2.621-0.246,3.842
		c3.226,2.543,6.979,4.302,10.329,6.688c6.811,4.66,12.155,11.247,19.537,15.112c7.763,4.447,16.669,6.038,25.004,9.052
		c-6.845,5.254-13.421,10.934-19.078,17.465c-4.582,5.209-6.766,11.897-9.937,17.958c-2.218,4.425-5.433,8.234-7.831,12.547
		c12.972,5.568,27.233,7.114,41.158,8.648c8.189,1.165,16.501,0.034,24.556-1.613c-10.43,10.844-13.443,26.035-17.375,40.004
		c-1.255,5.265-4.66,10.015-4.716,15.516c2.565,2.7,6.565,2.621,9.993,3.204c8.749,1.244,17.723,0.336,26.225-1.949
		c9.029-2.935,17.162-7.999,25.923-11.606c-3.484,13.936,4.425,26.718,8.458,39.534c2.521,6.822,2.778,14.149,3.674,21.296
		c6.385,0.661,12.312-2.061,18.26-3.932c7.651-2.487,15.437-5.411,21.487-10.9c4.291-4.055,8.2-8.503,11.763-13.208
		c0.179,4.503,0.504,9.085,2.184,13.331c4.19,13.69,14.799,23.828,23.402,34.806c1.098,1.759,3.887,3.798,5.265,1.131
		c6.184-9.713,14.306-17.969,20.837-27.413c3.663-5.131,6.038-11.001,9.175-16.434c4.257,7.226,10.172,13.32,16.759,18.439
		c6.486,4.369,13.857,7.125,20.803,10.642c3.271,1.456,6.901,3.775,10.586,2.308c2.734-7.775,4.279-15.997,8.223-23.324
		c4.302-7.92,6.341-16.781,7.562-25.643c8.76,9.589,22.136,12.2,34.481,13.521c7.64,0.101,14.642,3.988,22.259,4.19
		c2.756-0.672,2.285-3.91,2.442-6.049c-0.067-8.648,0.045-17.297-0.101-25.934c-0.078-8.391-2.857-16.367-4.739-24.444
		c4.347,0.739,8.738,1.288,13.006,2.453c7.226,1.255,14.675,1.266,21.946,0.302c5.803-0.941,11.415-2.767,17.151-4.055
		c2.095-0.695,4.952-0.975,5.836-3.372c-0.583-4.716-2.352-9.175-3.63-13.723c-1.669-5.803-3.517-11.617-6.665-16.804
		c-2.935-5.579-7.439-10.049-11.079-15.123c6.957-0.482,14.082,0.347,20.87-1.624c8.861-2.633,16.804-7.461,24.746-12.054
		c-3.025,5.388-6.061,10.822-7.909,16.748c-1.008,3.876-5.321,5.288-7.226,8.592c-2.767,4.291-0.605,10.721,4.1,12.603
		c2.207,1.143,5.344,1.098,6.285,3.854c9.903,19.481,20.926,38.402,30.135,58.242c9.69,21.453,18.675,43.69,21.386,67.271
		c0.807,14.138,1.389,28.914-4.313,42.211c-6.195,16.344-20.064,28.645-35.478,36.184c-18.899,9.802-40.912,12.076-61.849,9.679
		c-26.18-2.801-51.05-11.976-76.401-18.54c-13.947-2.745-28.69-6.072-42.648-1.568c-10.474,2.397-18.832,9.858-25.284,18.103
		c-3.495,4.649-7.046,10.172-5.332,16.266c3.327,12.659,7.315,25.161,10.161,37.954c1.424,6.401,1.754,12.959,2.547,19.453
		c2.677,21.919,9.251,44.13,6.672,66.362c-0.283,2.437-0.79,4.811-1.209,7.222c-1.859,9.119-5.556,18.193-12.255,24.847
		c-2.117,2.308-5.332,4.436-4.907,8.021c0.202,7.987,1.815,15.874,2.834,23.794c2.521-0.56,5.03-1.49,6.822-3.45
		c8.323-8.267,15.403-18.126,19.078-29.362c3.002-8.682,2.812-18.294,0.045-26.998c-6.807-21.413-8.87-44.215-12.128-66.356
		c-0.783-2.74-0.872-5.896-1.311-8.716c-0.511-3.281-0.911-6.586-1.267-9.887c-0.305-2.761,0.03-5.869,0.151-8.646
		c0.035-0.805,0.081-1.609,0.15-2.412c0.863-10.698,2.05-21.867,7.73-31.255c3.047-5.557,8.424-9.657,14.53-11.315
		c9.175-2.588,18.641,0.19,27.659,2.162c33.888,8.57,66.207,23.592,101.226,27.48c15.101,1.333,31.065,0.896,44.877-6.094
		c18.316-9.309,35.243-21.856,48.07-38.01c11.673-15.023,18.966-33.428,20.299-52.439
		C1085.519,955.998,1083.615,944.302,1081.912,932.809z M909.83,772.041c-13.981,23.794-37.472,41.001-63.171,50.311
		c-9.993,3.305-20.142,6.789-30.706,7.517c-4.526,0.493-8.94,1.949-13.521,1.815c-8.458-0.19-17.061,0.751-25.34-1.456
		c-24.197-2.028-47.51-12.446-65.524-28.69c-21.049-17.745-37.08-41.326-45.942-67.383c-3.271-9.78-4.492-20.075-5.4-30.292
		c0.728-12.771,3.462-25.687,9.97-36.834c4.459-7.282,9.164-14.563,15.605-20.277c19.806-20.221,45.986-33.787,73.59-39.601
		c9.343-2.353,19.044-2.442,28.6-3.26c7.304,0.202,14.597,0.896,21.834,1.882c17.095,4.313,33.652,11.203,48.26,21.15
		c27.749,17.364,48.384,45.247,58.287,76.334c2.935,10.037,5.052,20.456,4.795,30.964
		C921.603,747.664,916.26,760.502,909.83,772.041z"/>
	<path fill="#020202" d="M747.74,1148.883c1.613-3.361,5.299-6.946,9.32-5.31c4.627,2.341,7.293,7.069,10.138,11.203
		c5.254,8.435,9.892,17.33,13.353,26.662c1.837,6.632,3.439,14.115,0.448,20.658c-2.509,5.467-9.063,7.002-14.485,7.674
		c-7.618,0.896-13.421-5.467-16.86-11.483c-0.134,7.898,1.568,16.322-1.736,23.805c-2.409,5.299-8.615,6.71-13.802,7.573
		c-4.772-0.829-9.074-3.473-11.841-7.45c-4.481-5.837-8.503-12.188-10.844-19.19c-2.834-12.334-1.58-25.239,1.703-37.327
		c1.893-5.142,5.411-11.807,11.886-11.124c3.854-0.403,6.789,2.554,9.197,5.142c5.03,5.478,7.651,12.536,11.023,19.044
		C744.021,1168.824,743.315,1158.17,747.74,1148.883z"/>
	<path fill="#020202" d="M368.497,1209.224c0.095-1.642,0.094-3.286,0.094-4.943c0.02-1.906,0.083-3.812,0.127-5.718
		c0.088-3.805,0.105-7.63-0.423-11.407c-0.056-0.398-0.117-0.796-0.186-1.192c-1.378-8.469-2.7-17.79-9.007-24.164
		c-3.417-3.529-9.298-2.935-12.681,0.325c-7.203,5.456-9.052,14.709-13.376,22.17c-0.359-9.612,0.75-19.828-3.697-28.712
		c-1.535-3.316-4.571-6.632-8.548-6.24c-4.918,0.471-8.917,4.089-11.572,8.044c-8.077,12.401-12.435,27.021-13.432,41.729
		c-0.078,4.985,0.347,11.191,5.344,13.824c6.128,2.711,13.869,5.355,19.985,1.199c5.691-3.462,6.755-10.43,9.657-15.852
		c-0.851,8.816-2.285,17.991,0.202,26.684c1.445,5.388,6.408,9.545,12.043,9.701c5.893,0.291,13.073,1.333,17.532-3.506
		c2.27-2.251,3.738-5.118,4.778-8.11c0.604-1.738,1.001-3.536,1.559-5.279c0.56-1.748,0.984-3.54,1.27-5.354
		C368.334,1211.355,368.435,1210.29,368.497,1209.224z"/>
	<path fill="#020202" d="M409.95,1185.84c-1.803-7.069-4.414-15.011-11.102-18.865c-5.612-2.823-11.584,1.232-15.011,5.59
		c-5.344,6.979-8.794,15.303-10.833,23.828c-0.212,0.885-0.519,1.754-0.749,2.636c-0.235,0.903-0.455,1.811-0.673,2.719
		c-0.432,1.795-0.98,3.56-1.401,5.357c-0.425,1.815-0.728,3.659-0.906,5.514c-0.151,1.536-0.218,3.087-0.184,4.63
		c0.034,1.549-0.058,3.097-0.116,4.645c-0.14,3.748-0.294,7.509,0.006,11.254c0.148,1.854,0.409,3.7,0.831,5.512
		c1.467,6.251,7.002,11.393,13.533,11.718c5.937,0.213,12.569,1.087,17.879-2.185c1.958-1.206,3.512-3.064,4.682-5.018
		c0.642-1.073,1.151-2.102,1.592-3.273c0.696-1.845,1.507-3.632,2.202-5.471c1.007-2.666,1.26-5.403,1.576-8.219
		c0.323-2.872,0.589-5.75,0.8-8.633c0.231-3.167,0.408-6.324,0.364-9.498c-0.08-5.704-0.651-11.394-1.556-17.024
		C410.602,1189.313,410.29,1187.574,409.95,1185.84z"/>
	<path fill="#020202" d="M464.406,1197.446c-2.241-8.772-6.542-17.398-13.88-22.965c-4.918-3.529-11.752-3.451-16.625,0.123
		c-10.049,7.282-14.866,19.336-18.126,30.874c-0.849,2.646-1.419,5.372-1.851,8.114c-0.434,2.751-0.798,5.548-1.08,8.32
		c-0.289,2.845-0.427,5.705-0.415,8.565c0.012,2.784,0.161,5.575,0.388,8.35c0.104,1.41,0.233,2.818,0.386,4.224
		c0.068,0.628,0.172,1.249,0.29,1.87c0.119,0.625,0.455,1.391,0.455,2.019c0.695,2.498,1.723,4.908,3.148,7.079
		c3.988,5.545,11.225,7.651,17.767,7.819c7.427,0.034,15.628,0.695,21.946-3.977c5.164-4.234,8.335-10.598,9.421-17.117
		C468.797,1226.416,468.058,1211.517,464.406,1197.446z"/>
	<path fill="#020202" d="M498.271,1161.934c6.385-1.77,13.208,0.807,17.935,5.176c7.528,6.934,12.312,16.322,15.56,25.911
		c4.179,13.163,6.161,27.054,6.083,40.867c-0.605,9.847-1.423,20.792-8.357,28.488c-5.523,5.848-14.093,6.587-21.655,7.214
		c-10.273,0.571-22.192-0.336-29.507-8.514c-7.528-9.063-8.693-21.531-8.716-32.857c-0.504-15.292,2.241-30.74,8.055-44.889
		C482.105,1174.481,488.076,1164.679,498.271,1161.934z"/>
	<path fill="#020202" d="M555.381,1171.647c3.686-4.996,8.615-9.903,15.123-10.564c5.064-1.21,10.553,0.022,14.709,3.125
		c8.626,5.949,13.824,15.594,17.173,25.284c3.574,10.273,5.848,21.005,6.587,31.86c2.7-12.67,6.083-25.508,13.409-36.375
		c3.036-4.347,5.893-9.074,10.318-12.166c6.072-1.3,11.102,3.282,15.213,7.08c7.102,7.629,10.889,17.7,13.701,27.581
		c3.025,13.163,6.016,27.2,2.364,40.542c-1.423,6.251-6.845,10.642-12.693,12.614c-10.206,2.588-21.879,3.473-31.031-2.677
		c-6.923-6.307-8.503-16.042-10.026-24.814c-1.557,4.963-2.509,10.094-3.103,15.269c-1.019,9.545-8.884,17.946-18.529,19.044
		c-10.53,1.445-21.923,2.397-31.871-2.117c-6.565-2.857-10.777-9.388-12.95-15.964c-3.943-13.499-3.585-27.827-1.512-41.617
		C544.044,1195.015,547.752,1182.166,555.381,1171.647z"/>
	<path fill="#020202" d="M679.64,1163.827c6.856-2.028,12.144,3.876,15.986,8.66c7.976,11.707,12.446,25.598,14.07,39.623
		c1.4,9.119,3.73,19.257-1.176,27.771c-3.35,6.52-11.471,8.099-18.137,8.413c-6.117,0.482-12.76-1.938-15.919-7.438
		c-5.657-9.477-7.248-20.803-7.618-31.647c0.134-9.802-0.941-19.885,2.207-29.339C670.667,1173.697,673.243,1166.37,679.64,1163.827
		z"/>
	<path fill="#020202" d="M304.299,1224.388c6.016-1.176,13.017-0.571,17.958,3.383c3.786,4.436,4.246,10.598,4.895,16.154
		c0.179,13.073-3.372,26.785-12.345,36.643c-2.117,3.014-7.158,2.622-9.197-0.314c-3.238-4.436-5.019-9.746-6.251-15.045
		c-2.297-9.78-2.946-20.019-1.468-29.967C298.866,1231.199,299.907,1226.024,304.299,1224.388z"/>
	<path fill="#020202" d="M763.76,1225.565c4.839-0.851,11.539-1.501,14.317,3.607c3.842,7.002,3.204,15.415,2.173,23.055
		c-1.367,10.598-5.814,20.657-12.289,29.115c-1.064,1.355-2.297,2.621-3.809,3.495c-5.534-1.837-8.38-7.483-10.161-12.614
		c-3.238-10.396-4.055-21.565-2.33-32.297C752.692,1233.406,757.262,1227.335,763.76,1225.565z"/>
	<path fill="#020202" d="M339.161,1242.525c5.993-1.176,12.749-1.524,18.148,1.815c4.548,2.061,5.937,7.338,6.934,11.796
		c1.983,8.335,0.627,16.916-0.728,25.239c-2.05,10.474-6.867,20.467-13.891,28.51c-2.117,2.711-6.329,2.028-8.581-0.157
		c-3.854-3.596-6.105-8.559-7.595-13.521c-4.19-13.174-5.332-27.323-3.361-41.001
		C330.849,1249.896,333.616,1244.116,339.161,1242.525z"/>
	<path fill="#020202" d="M726.668,1242.301c5.433-0.84,12.009-1.288,16.49,2.532c5.321,6.206,5.713,14.899,5.388,22.685
		c-0.93,12.693-2.05,25.979-8.895,37.092c-2.241,3.484-5.288,7.875-10.038,7.226c-3.674,0.583-5.803-2.901-7.259-5.669
		c-5.108-10.116-6.721-21.464-8.861-32.465c-1.277-7.64-1.165-16.031,2.89-22.875
		C718.815,1247.029,722.299,1243.69,726.668,1242.301z"/>
	<path fill="#020202" d="M878.664,1269.535c3.462-7.45,6.979-15.179,13.006-20.949c6.217,9.657,9.858,20.691,13.017,31.658
		c7.158,25.878,5.008,54.041-5.411,78.731c-3.562,7.629-7.091,15.628-12.984,21.767c-2.901-2.207-4.022-5.848-5.579-8.973
		c-9.645-21.666-14.675-45.986-11.057-69.646C871.046,1290.898,874.273,1279.942,878.664,1269.535z"/>
	<path fill="#020202" d="M190.022,1249.896c2.868,0.437,4.201,3.518,5.668,5.691c10.956,19.616,18.047,41.864,17.756,64.482
		c-0.157,19.885-4.739,40.071-14.855,57.301c-1.053,2.543-4.705,2.577-5.837,0.089c-11.695-18.876-18.697-40.721-19.918-62.913
		c-0.426-15.997,2.252-32.129,7.931-47.084C183.345,1261.39,185.518,1254.859,190.022,1249.896z"/>
	<path fill="#020202" d="M684.076,1255.991c6.397-1.188,13.88-1.199,19.235,3.025c3.943,3.607,4.604,9.309,5.456,14.306
		c1.266,10.06-0.235,20.198-1.781,30.135c-1.714,8.727-4.369,17.577-9.701,24.836c-2.655,3.63-7.943,6.027-12.132,3.529
		c-4.795-2.621-7.17-7.976-9.096-12.804c-4.974-14.563-5.758-30.325-3.943-45.505
		C672.974,1266.319,676.145,1257.727,684.076,1255.991z"/>
	<path fill="#020202" d="M377.183,1258.153c4.123-1.355,9.04-2.464,12.928,0.134c7.058,3.742,9.813,11.707,12.961,18.518
		c4.067,8.615,2.868,18.507,1.344,27.592c-1.636,8.794-3.809,17.935-9.354,25.172c-2.599,3.249-7.898,6.049-11.494,2.655
		c-4.291-3.966-6.027-9.836-8.01-15.157c-3.305-10.687-5.87-21.655-7.181-32.779c0.213-6.005,0.258-12.155,1.904-17.958
		C371.346,1262.835,373.519,1259.284,377.183,1258.153z"/>
	<path fill="#020202" d="M630.181,1265.401c7.214-0.874,14.776-0.683,21.8,1.311c6.52,2.073,11.449,8.021,12.132,14.855
		c1.77,14.037,0.526,28.555-4.089,41.965c-2.588,8.021-6.598,15.863-12.961,21.543c-5.131,4.436-13.241,5.243-18.843,1.243
		c-6.374-4.806-9.981-12.3-12.435-19.694c-2.677-7.472-2.733-15.459-3.686-23.245c-0.392-8.973,0.269-18.294,3.518-26.729
		C617.936,1270.576,623.885,1266.42,630.181,1265.401z"/>
	<path fill="#020202" d="M430.932,1268.123c8.2-1.087,17.655-1.804,24.735,3.271c7.629,5.87,8.503,16.255,9.264,25.127
		c0.134,10.284-1.176,20.646-3.999,30.549c-2.498,8.021-6.173,16.356-13.264,21.352c-4.996,3.63-12.424,3.663-17.252-0.28
		c-4.358-3.551-8.032-7.987-10.34-13.13c-5.769-11.931-7.931-25.273-8.211-38.425c0.269-7.349,1.58-15.247,6.699-20.882
		C421.813,1272.033,426.16,1269.299,430.932,1268.123z"/>
	<path fill="#020202" d="M847.331,1288.814c-1.154-6.341-2.565-13.734,1.815-19.212c7.147,4.951,9.645,13.701,12.188,21.554
		c2.868,11.102,4.784,22.719,3.394,34.201c-0.672-0.045-2.028-0.123-2.7-0.168C855.318,1313.919,849.717,1301.776,847.331,1288.814z
		"/>
	<path fill="#020202" d="M227.886,1274.453c1.12-2.353,3.82-2.263,6.027-2.621c1.232,5.142,0.773,10.441,0.146,15.639
		c-1.243,13.544-7.013,26.292-14.25,37.652c-0.65-0.067-1.972-0.191-2.621-0.246c-1.288-8.436,0.258-16.938,1.4-25.284
		C220.403,1290.853,222.868,1281.936,227.886,1274.453z"/>
	<path fill="#020202" d="M565.396,1272.458c8.548-1.882,17.42-0.65,25.788,1.535c7.584,2.487,11.74,10.43,12.827,17.913
		c2.319,9.97,0.157,20.131-0.493,30.157c-2.341,12.76-6.744,25.822-15.952,35.31c-4.055,4.313-10.06,6.677-15.975,6.173
		c-5.176-0.056-9.578-3.338-13.006-6.923c-6.542-6.229-9.813-14.955-12.345-23.425c-3.529-14.205-5.478-29.362-1.524-43.69
		c1.568-5.366,4.1-11.012,9.13-13.936C557.297,1273.377,561.498,1273.254,565.396,1272.458z"/>
	<path fill="#020202" d="M498.148,1276.066c7.73-1.165,15.695,0.146,22.954,2.913c7.472,3.058,10.676,11.393,11.919,18.809
		c1.871,16.793-0.078,34.224-7.08,49.717c-2.689,6.105-6.789,11.539-11.908,15.807c-4.671,3.82-11.449,5.736-17.218,3.417
		c-6.262-2.431-11.281-7.416-14.574-13.185c-6.173-10.452-8.928-22.539-10.116-34.526c-0.706-10.452-0.549-21.61,4.907-30.919
		C481.198,1280.547,489.947,1276.984,498.148,1276.066z"/>
	<path fill="#020202" d="M796.236,1280.031c6.341,0.258,11.819,3.697,17.218,6.665c17.913,9.959,33.865,23.873,44.776,41.326
		c9.545,14.44,15.829,30.986,18.395,48.104c0.56,1.904-0.347,3.674-1.311,5.31c-2.946,0-5.187-2.106-7.494-3.596
		c-13.409-9.78-26.965-19.347-40.329-29.183c-3.383-2.487-7.326-4.447-9.802-7.943c-10.497-15.807-17.689-33.742-21.408-52.327
		C795.788,1285.61,796.079,1282.798,796.236,1280.031z"/>
	<path fill="#020202" d="M266.557,1287.291c6.206-3.193,12.424-7.909,19.817-6.89c0.067,9.186-3.07,17.991-5.59,26.718
		c-6.699,20.467-18.495,39.478-34.874,53.593c-8.021,7.237-17.218,13.051-26.763,18.07c-4.134,1.96-8.492,4.571-13.264,3.607
		c-1.266-7.696,1.602-15.235,3.529-22.562C218.297,1329.535,238.898,1302.705,266.557,1287.291z"/>
	<path fill="#020202" d="M777.572,1322.814c9.119-1.4,16.849,4.615,24.029,9.276c6.878,5.31,13.992,10.598,19.481,17.398
		c1.815,1.837,2.128,4.414,2.319,6.901c-16.154-4.548-31.535-13.141-42.906-25.631
		C778.267,1328.695,777.953,1325.626,777.572,1322.814z"/>
	<path fill="#020202" d="M282.051,1330.88c6.946-4.156,14.765-8.38,23.156-6.833c-2.364,7.214-8.559,12.11-14.328,16.625
		c-8.29,6.24-17.666,11.034-27.446,14.44c-3.406,1.972-5.691-3.238-2.834-5.22C267.185,1342.978,273.985,1336.078,282.051,1330.88z"
		/>
	<path fill="#020202" d="M265.504,1361.328c7.954-4.201,17.117-5.545,26.035-5.4c6.677,0.078,13.409-0.325,20.041,0.672
		c9.578,1.994,19.761,2.498,28.398,7.595c-4.481,5.982-10.956,9.959-16.949,14.261c-20.422,13.947-44.911,21.453-69.568,22.203
		c-11.259,0.056-22.506-1.647-33.294-4.806c-3.069-0.896-5.915-2.375-8.637-4.01c7.046-5.411,15.258-8.962,22.909-13.398
		C244.791,1372.732,255.008,1366.773,265.504,1361.328z"/>
	<path fill="#020202" d="M540.437,1355.794c3.473,0.336,5.22,3.719,6.901,6.341c9.847,17.846,15.65,38.268,14.306,58.757
		c-0.616,14.911-5.12,29.541-12.379,42.547c-1.983,3.282-3.652,7.08-6.934,9.287c-3.674,1.143-5.557-2.722-7.192-5.243
		c-6.811-11.886-11.751-24.903-14.104-38.413c-3.462-21.587,1.322-43.903,11.337-63.16
		C534.522,1362.191,536.74,1358.191,540.437,1355.794z"/>
	<path fill="#020202" d="M749.622,1360.634c16.983-4.492,34.784-6.005,52.26-3.999c7.439,0.627,14.474,3.193,21.643,5.153
		c15.773,4.929,30.269,13.577,42.738,24.365c2.072,1.692,3.462,4.022,4.369,6.531c-26.315,9.298-55.99,10.172-82.417,0.784
		c-14.384-5.355-27.76-13.297-39.724-22.876c-1.938-2.005-5.254-3.887-4.761-7.091
		C745.421,1362.068,747.516,1361.25,749.622,1360.634z"/>
	<path fill="#020202" d="M394.871,1428.308c6.946,4.055,11.886,10.598,17.319,16.378c4.38,5.444,10.015,10.396,11.863,17.398
		c2.117,7.248,2.341,14.955,1.367,22.427c-0.571,3.417-1.131,7.069-3.305,9.926c-2.476,0.089-4.582-1.378-6.531-2.7
		c-9.063-6.576-16.804-15.392-20.77-25.979C390.67,1453.828,389.36,1440.026,394.871,1428.308z"/>
	<path fill="#020202" d="M446.47,1441.482c1.389-2.801,3.988-4.615,6.509-6.285c4.1,4.772,5.814,10.9,8.155,16.613
		c1.994,5.131,4.436,10.418,3.663,16.087c-1.12,8.548-4.66,17.398-11.886,22.584c-3.607-5.5-5.601-11.785-8.29-17.722
		c-1.804-4.38-4.123-8.839-3.775-13.712C441.216,1452.842,443.546,1446.893,446.47,1441.482z"/>
	<path fill="#020202" d="M666.208,1447.151c3.708-3.394,7.909-6.901,13.208-7.035c0.773,7.382,0.224,14.81-0.179,22.215
		c-0.291,5.411,0.302,10.945-1.008,16.277c-3.428,9.612-10.418,17.543-18.339,23.794c-2.14,1.882-4.996,2.252-7.719,2.521
		c-1.624-7.36-0.885-14.933-1.042-22.394c0.09-5.041-0.291-10.183,0.93-15.101C654.849,1459.552,660.147,1452.797,666.208,1447.151z
		"/>
	<path fill="#020202" d="M615.461,1451.172c1.434-2.196,3.495-3.876,5.444-5.579c5.724,4.481,8.76,11.348,10.766,18.159
		c3.921,13.634-0.314,29.239-10.575,39.052c-5.254-3.73-7.943-9.813-10.228-15.605
		C606.442,1475.325,608.829,1461.736,615.461,1451.172z"/>
	<path fill="#020202" d="M333.414,1450.635c7.506-1.311,14.619,1.692,21.318,4.683c16.882,7.719,30.997,21.487,38.514,38.537
		c2.711,6.24,5.086,12.827,5.153,19.716c-9.354,0.851-17.958-3.742-26.147-7.606c-16.277-8.189-28.432-23.089-35.064-39.881
		C334.983,1461.21,333.571,1455.99,333.414,1450.635z"/>
	<path fill="#020202" d="M728.942,1463.014c3.26-1.143,6.722-1.333,10.138-1.288c1.904,7.114-1.703,13.936-4.515,20.265
		c-7.382,16.434-20.579,30.269-36.912,37.965c-6.71,3.069-13.846,5.87-21.352,5.635c-1.031-7.36,2.263-14.216,5.041-20.792
		C689.957,1484.691,708.251,1469.545,728.942,1463.014z"/>
	<path fill="#020202" d="M541.49,1485.004c5.344-0.84,8.716,4.537,9.701,9.074c1.759,6.71-0.146,15.426-6.721,18.854
		c-7.36,2.33-12.289-6.195-12.435-12.48C531.643,1494.358,534.063,1485.127,541.49,1485.004z"/>
	<path fill="#020202" d="M289.769,1497.641c9.253-3.462,19.324-2.129,28.824-0.504c21.106,3.305,40.396,16.154,51.98,34.056
		c2.812,4.291,5.859,8.872,5.568,14.25c-23.929,4.122-50.008-2.252-67.876-19.112c-6.206-5.825-11.83-12.323-16.21-19.638
		C290.352,1503.981,289.971,1500.755,289.769,1497.641z"/>
	<path fill="#020202" d="M735.048,1514.982c8.839-4.022,18.35-6.699,28.018-7.629c7.069-0.28,14.373-0.807,21.184,1.568
		c-0.336,9.713-8.077,16.602-13.611,23.805c-13.611,14.933-33.159,24.399-53.313,25.889c-6.52-0.045-13.611,0.975-19.571-2.229
		c-0.594-4.952,2.834-9.018,5.344-12.905C711.287,1531.685,721.918,1521.144,735.048,1514.982z"/>
	<path fill="#020202" d="M406.029,1535.169c10.586-15.986,29.586-27.301,49.123-25.833c8.346,0.157,16.412,3.338,23.223,8.055
		c8.424,6.094,13.275,16.356,13.6,26.651c0.56,9.825-0.134,21.016-7.483,28.421c-6.475,6.621-17.207,5.915-24.802,1.736
		c-3.159-1.669-5.702-5.041-5.164-8.749c1.311-9.309,7.887-17.162,8.38-26.64c-0.504-3.383-4.179-2.756-6.699-2.756
		c-8.099,0.269-14.63,6.161-19.492,12.121c-5.556,6.789-7.685,15.986-5.87,24.556c6.027,16.12,22.595,27.883,39.937,27.48
		c6.89,0.168,13.398-2.364,19.772-4.615c3.484,3.876,0.818,8.749-0.325,13.017c-1.333,3.921-2.207,8.055-4.167,11.751
		c-2.633,1.031-5.5,0.325-8.055-0.56c-18.854-6.778-37.271-15.919-51.98-29.765c-8.379-8.592-15.325-18.831-18.574-30.482
		C405.256,1551.749,403.228,1543.022,406.029,1535.169z"/>
	<path fill="#020202" d="M506.549,1517.514c3.081,4.896,2.621,10.922,3.294,16.457c0.202,14.216,1.165,28.88-3.529,42.57
		c-1.21,3.82-3.898,6.878-6.654,9.69c-0.93-1.971-2.879-3.831-1.96-6.128c3.137-14.821,5.993-29.765,7.17-44.889
		C505.642,1529.321,505.284,1523.328,506.549,1517.514z"/>
</g>
</svg>
