<svg xmlns="http://www.w3.org/2000/svg" viewBox="0 0 48 48"><defs><style>.cls-1,.cls-2{fill:#30385c;}.cls-2{opacity:0.5;}</style></defs><title>security guard</title><g id="Layer_2" data-name="Layer 2"><path class="cls-1" d="M41,42H7a1,1,0,0,1-1-1V7A1,1,0,0,1,7,6H41a1,1,0,0,1,1,1V41A1,1,0,0,1,41,42ZM8,40H40V8H8Z"/><circle class="cls-1" cx="11" cy="11" r="1"/><circle class="cls-1" cx="15" cy="11" r="1"/><circle class="cls-1" cx="19" cy="11" r="1"/><path class="cls-1" d="M21,16H7a1,1,0,0,1,0-2H20.59l3.7-3.71A1,1,0,0,1,25,10H41a1,1,0,0,1,0,2H25.41l-3.7,3.71A1,1,0,0,1,21,16Z"/><path class="cls-1" d="M32,21a2,2,0,0,1-2-2,1,1,0,0,0-1-1H19a1,1,0,0,0-1,1,2,2,0,0,1-2,2,1,1,0,0,0-1,1v4.75A11.54,11.54,0,0,0,23.76,38a1,1,0,0,0,.48,0A11.54,11.54,0,0,0,33,26.75V22A1,1,0,0,0,32,21Zm-1,5.75A9.56,9.56,0,0,1,24,36a9.56,9.56,0,0,1-7-9.22V22.87A4,4,0,0,0,19.87,20h8.26A4,4,0,0,0,31,22.87Z"/><path class="cls-2" d="M31,22.87v3.88A9.56,9.56,0,0,1,24,36a8.4,8.4,0,0,1-1-.34,9.55,9.55,0,0,0,6-8.88V22.87A4,4,0,0,1,26.13,20h2A4,4,0,0,0,31,22.87Z"/><path class="cls-1" d="M27,32H21a1,1,0,0,1-1-1V27a1,1,0,0,1,1-1h6a1,1,0,0,1,1,1v4A1,1,0,0,1,27,32Zm-5-2h4V28H22Z"/><path class="cls-1" d="M26,28H22a1,1,0,0,1-1-1V25a3,3,0,0,1,6,0v2A1,1,0,0,1,26,28Zm-3-2h2V25a1,1,0,0,0-2,0Z"/><rect class="cls-2" x="38" y="12" width="3" height="28"/><path class="cls-2" d="M38,37h0a0,0,0,0,1,0,0v3a0,0,0,0,1,0,0H35a0,0,0,0,1,0,0v0A3,3,0,0,1,38,37Z"/><path class="cls-2" d="M41,10H34a2,2,0,0,0,2-2h5Z"/><path class="cls-2" d="M26,30H23a2,2,0,0,0,2-2h1Z"/></g></svg>