<svg xmlns="http://www.w3.org/2000/svg" viewBox="0 0 48 48"><defs><style>.cls-1,.cls-2{fill:#30385c;}.cls-2{opacity:0.5;}</style></defs><title>data server</title><g id="Layer_2" data-name="Layer 2"><path class="cls-1" d="M36,7.62a5.85,5.85,0,0,0-1-.9A7.64,7.64,0,0,0,33.84,6,21.75,21.75,0,0,0,24,4c-7.41,0-13,2.58-13,6a4.17,4.17,0,0,0,2,3.29l.45.3c.15.1.32.2.49.29l.34.18.28.14.47.22A23.74,23.74,0,0,0,24,16a23.74,23.74,0,0,0,9-1.58l.47-.22a2.53,2.53,0,0,0,.33-.16l.08,0,.22-.12a5.55,5.55,0,0,0,.48-.29,5,5,0,0,0,.45-.3,6.35,6.35,0,0,0,1-.9A3.55,3.55,0,0,0,37,10,3.52,3.52,0,0,0,36,7.62Zm-3.81,5A21.7,21.7,0,0,1,24.41,14H24a22.12,22.12,0,0,1-8.19-1.42C14.05,11.82,13,10.86,13,10c0-1.89,4.7-4,11-4a22.24,22.24,0,0,1,7.89,1.3C33.83,8.07,35,9.06,35,10S34,11.82,32.19,12.58Z"/><path class="cls-1" d="M26,44H22a1,1,0,0,1-1-1V39a1,1,0,0,1,1-1h4a1,1,0,0,1,1,1v4A1,1,0,0,1,26,44Zm-3-2h2V40H23Z"/><path class="cls-1" d="M39,42H27a1,1,0,0,1,0-2H39a1,1,0,0,1,0,2Z"/><path class="cls-1" d="M21,42H9a1,1,0,0,1,0-2H21a1,1,0,0,1,0,2Z"/><path class="cls-1" d="M36,9a1,1,0,0,0-1,1c0,.86-1,1.82-2.81,2.58A22.12,22.12,0,0,1,24,14a22.12,22.12,0,0,1-8.19-1.42C14.05,11.82,13,10.86,13,10a1,1,0,0,0-2,0v7a4.17,4.17,0,0,0,2,3.29,9.63,9.63,0,0,0,1.28.77,2.44,2.44,0,0,0,.28.14l.47.22A23.74,23.74,0,0,0,24,23a23.74,23.74,0,0,0,9-1.58l.47-.22.3-.14A9.35,9.35,0,0,0,35,20.29,4.17,4.17,0,0,0,37,17V10A1,1,0,0,0,36,9ZM32.19,19.58A22.12,22.12,0,0,1,24,21a22.12,22.12,0,0,1-8.19-1.42C14.05,18.82,13,17.86,13,17V13.29l.45.3c.15.1.32.2.49.29l.34.18.28.14.47.22A23.74,23.74,0,0,0,24,16a23.74,23.74,0,0,0,9-1.58l.47-.22a2.53,2.53,0,0,0,.33-.16l.3-.16a5.55,5.55,0,0,0,.48-.29,5,5,0,0,0,.45-.3V17C35,17.86,34,18.82,32.19,19.58Z"/><path class="cls-1" d="M36,16a1,1,0,0,0-1,1c0,.86-1,1.82-2.81,2.58A22.12,22.12,0,0,1,24,21a22.12,22.12,0,0,1-8.19-1.42C14.05,18.82,13,17.86,13,17a1,1,0,0,0-2,0v7a4.17,4.17,0,0,0,2,3.29,9.63,9.63,0,0,0,1.28.77,2.44,2.44,0,0,0,.28.14l.47.22A23.74,23.74,0,0,0,24,30a23.74,23.74,0,0,0,9-1.58l.47-.22.3-.14A9.35,9.35,0,0,0,35,27.29,4.17,4.17,0,0,0,37,24V17A1,1,0,0,0,36,16ZM32.19,26.58A22.12,22.12,0,0,1,24,28a22.12,22.12,0,0,1-8.19-1.42C14.05,25.82,13,24.86,13,24V20.29a9.63,9.63,0,0,0,1.28.77,2.44,2.44,0,0,0,.28.14l.47.22A23.74,23.74,0,0,0,24,23a23.74,23.74,0,0,0,9-1.58l.47-.22.3-.14A9.35,9.35,0,0,0,35,20.29V24C35,24.86,34,25.82,32.19,26.58Z"/><path class="cls-1" d="M36,23a1,1,0,0,0-1,1c0,.86-1,1.82-2.81,2.58A22.12,22.12,0,0,1,24,28a22.12,22.12,0,0,1-8.19-1.42C14.05,25.82,13,24.86,13,24a1,1,0,0,0-2,0v7c0,3.42,5.59,6,13,6a21.75,21.75,0,0,0,9.84-2A7.64,7.64,0,0,0,35,34.28,4.18,4.18,0,0,0,37,31V24A1,1,0,0,0,36,23Zm-1,8c0,1.89-4.7,4-11,4s-11-2.11-11-4V27.29a9.63,9.63,0,0,0,1.28.77,2.44,2.44,0,0,0,.28.14l.47.22A23.74,23.74,0,0,0,24,30a23.74,23.74,0,0,0,9-1.58l.47-.22.3-.14A9.35,9.35,0,0,0,35,27.29Z"/><circle class="cls-1" cx="20" cy="18" r="1"/><circle class="cls-1" cx="24" cy="18" r="1"/><circle class="cls-1" cx="28" cy="18" r="1"/><circle class="cls-1" cx="20" cy="25" r="1"/><circle class="cls-1" cx="24" cy="25" r="1"/><circle class="cls-1" cx="28" cy="25" r="1"/><circle class="cls-1" cx="20" cy="32" r="1"/><circle class="cls-1" cx="24" cy="32" r="1"/><circle class="cls-1" cx="28" cy="32" r="1"/><path class="cls-1" d="M24,40a1,1,0,0,1-1-1V36a1,1,0,0,1,2,0v3A1,1,0,0,1,24,40Z"/><path class="cls-1" d="M27,11H21a1,1,0,0,1,0-2h6a1,1,0,0,1,0,2Z"/><path class="cls-2" d="M35,10c0,.86-1,1.82-2.81,2.58A21.7,21.7,0,0,1,24.41,14,8,8,0,0,0,31.89,7.3C33.83,8.07,35,9.06,35,10Z"/><path class="cls-2" d="M35,13.29V17c0,.86-1,1.82-2.81,2.58A22.12,22.12,0,0,1,24,21h0a5.39,5.39,0,0,0,4.49-5.35A19.22,19.22,0,0,0,33,14.42l.47-.22a2.53,2.53,0,0,0,.33-.16l.3-.16a5.55,5.55,0,0,0,.48-.29A5,5,0,0,0,35,13.29Z"/><path class="cls-2" d="M35,20.29V24c0,.86-1,1.82-2.81,2.58A22.12,22.12,0,0,1,24,28h0a5.39,5.39,0,0,0,4.49-5.35A19.22,19.22,0,0,0,33,21.42l.47-.22.3-.14A9.35,9.35,0,0,0,35,20.29Z"/><path class="cls-2" d="M35,27.29V31c0,1.89-4.7,4-11,4h0a5.39,5.39,0,0,0,4.49-5.35A19.22,19.22,0,0,0,33,28.42l.47-.22.3-.14A9.35,9.35,0,0,0,35,27.29Z"/><path class="cls-2" d="M25,40h0a0,0,0,0,1,0,0v2a0,0,0,0,1,0,0H23a0,0,0,0,1,0,0v0A2,2,0,0,1,25,40Z"/></g></svg>