<svg xmlns="http://www.w3.org/2000/svg" viewBox="0 0 48 48"><defs><style>.cls-1,.cls-2{fill:#30385c;}.cls-2{opacity:0.5;}</style></defs><title>layout</title><g id="Layer_2" data-name="Layer 2"><path class="cls-1" d="M41,20H7a1,1,0,0,1-1-1V7A1,1,0,0,1,7,6H41a1,1,0,0,1,1,1V19A1,1,0,0,1,41,20ZM8,18H40V8H8Z"/><path class="cls-1" d="M15,32H7a1,1,0,0,1-1-1V23a1,1,0,0,1,1-1h8a1,1,0,0,1,1,1v8A1,1,0,0,1,15,32ZM8,30h6V24H8Z"/><path class="cls-1" d="M15,36H7a1,1,0,0,1,0-2h8a1,1,0,0,1,0,2Z"/><path class="cls-1" d="M15,39H7a1,1,0,0,1,0-2h8a1,1,0,0,1,0,2Z"/><path class="cls-1" d="M15,42H7a1,1,0,0,1,0-2h8a1,1,0,0,1,0,2Z"/><path class="cls-1" d="M28,36H20a1,1,0,0,1,0-2h8a1,1,0,0,1,0,2Z"/><path class="cls-1" d="M28,39H20a1,1,0,0,1,0-2h8a1,1,0,0,1,0,2Z"/><path class="cls-1" d="M28,42H20a1,1,0,0,1,0-2h8a1,1,0,0,1,0,2Z"/><path class="cls-1" d="M41,36H33a1,1,0,0,1,0-2h8a1,1,0,0,1,0,2Z"/><path class="cls-1" d="M41,39H33a1,1,0,0,1,0-2h8a1,1,0,0,1,0,2Z"/><path class="cls-1" d="M41,42H33a1,1,0,0,1,0-2h8a1,1,0,0,1,0,2Z"/><path class="cls-1" d="M41,20a1,1,0,0,1-.33-.06l-34-12a1,1,0,1,1,.66-1.88l34,12A1,1,0,0,1,41,20Z"/><path class="cls-1" d="M7,20a1,1,0,0,1-.33-1.94l34-12a1,1,0,0,1,.66,1.88l-34,12A1,1,0,0,1,7,20Z"/><path class="cls-1" d="M7,32a1,1,0,0,1-.71-.29,1,1,0,0,1,0-1.42l8-8a1,1,0,0,1,1.42,1.42l-8,8A1,1,0,0,1,7,32Z"/><path class="cls-1" d="M15,32a1,1,0,0,1-.71-.29l-8-8a1,1,0,0,1,1.42-1.42l8,8a1,1,0,0,1,0,1.42A1,1,0,0,1,15,32Z"/><path class="cls-1" d="M28,32H20a1,1,0,0,1-1-1V23a1,1,0,0,1,1-1h8a1,1,0,0,1,1,1v8A1,1,0,0,1,28,32Zm-7-2h6V24H21Z"/><path class="cls-1" d="M20,32a1,1,0,0,1-.71-.29,1,1,0,0,1,0-1.42l8-8a1,1,0,0,1,1.42,1.42l-8,8A1,1,0,0,1,20,32Z"/><path class="cls-1" d="M28,32a1,1,0,0,1-.71-.29l-8-8a1,1,0,0,1,1.42-1.42l8,8a1,1,0,0,1,0,1.42A1,1,0,0,1,28,32Z"/><path class="cls-1" d="M41,32H33a1,1,0,0,1-1-1V23a1,1,0,0,1,1-1h8a1,1,0,0,1,1,1v8A1,1,0,0,1,41,32Zm-7-2h6V24H34Z"/><path class="cls-1" d="M33,32a1,1,0,0,1-.71-.29,1,1,0,0,1,0-1.42l8-8a1,1,0,0,1,1.42,1.42l-8,8A1,1,0,0,1,33,32Z"/><path class="cls-1" d="M41,32a1,1,0,0,1-.71-.29l-8-8a1,1,0,0,1,1.42-1.42l8,8a1,1,0,0,1,0,1.42A1,1,0,0,1,41,32Z"/><path class="cls-2" d="M40,18H30A10,10,0,0,0,40,8h0Z"/><path class="cls-2" d="M40,30H34a6,6,0,0,0,6-6h0Z"/><path class="cls-2" d="M27,30H21a6,6,0,0,0,6-6h0Z"/><path class="cls-2" d="M14,30H8a6,6,0,0,0,6-6h0Z"/></g></svg>