<svg xmlns="http://www.w3.org/2000/svg" viewBox="0 0 48 48"><defs><style>.cls-1,.cls-2{fill:#30385c;}.cls-2{opacity:0.5;}</style></defs><title>responsive display</title><g id="Layer_2" data-name="Layer 2"><path class="cls-1" d="M38,33H27a1,1,0,0,1-1-1V26H21a1,1,0,0,1-1-1V19a1,1,0,0,0-1-1H13a1,1,0,0,1-1-1V14a6,6,0,0,1,6-6H38a6,6,0,0,1,6,6V27A6,6,0,0,1,38,33ZM28,31H38a4,4,0,0,0,4-4V14a4,4,0,0,0-4-4H18a4,4,0,0,0-4,4v2h5a3,3,0,0,1,3,3v5h4a2,2,0,0,1,2,2Z"/><path class="cls-1" d="M34,37H27a1,1,0,0,1-1-1V32a1,1,0,0,1,1-1h7a1,1,0,0,1,1,1v4A1,1,0,0,1,34,37Zm-6-2h5V33H28Z"/><path class="cls-1" d="M38,40a1,1,0,0,1-1-1c0-.49,0-2-3-2H28a1,1,0,0,1,0-2h6c3.13,0,5,1.5,5,4A1,1,0,0,1,38,40Z"/><path class="cls-1" d="M43,28H28a1,1,0,0,1,0-2H43a1,1,0,0,1,0,2Z"/><path class="cls-1" d="M26,40H20a2,2,0,0,1-2-2V26a2,2,0,0,1,2-2h6a2,2,0,0,1,2,2V38A2,2,0,0,1,26,40ZM20,26V38h6V26Zm6,0h0Z"/><path class="cls-1" d="M14,37H12a1,1,0,0,1,0-2h2a1,1,0,0,1,0,2Z"/><path class="cls-1" d="M20,40H7a3,3,0,0,1-3-3V19a3,3,0,0,1,3-3H19a3,3,0,0,1,3,3v6a1,1,0,0,1-1,1H20V38a1,1,0,0,1,0,2ZM7,18a1,1,0,0,0-1,1V37a1,1,0,0,0,1,1H18V26a2,2,0,0,1,2-2V19a1,1,0,0,0-1-1Z"/><rect class="cls-2" x="40" y="10" width="2" height="16"/><rect class="cls-2" x="39" y="28" width="3" height="3"/><rect class="cls-2" x="32" y="33" width="1" height="2"/><path class="cls-2" d="M40,24h0a0,0,0,0,1,0,0v2a0,0,0,0,1,0,0H38a0,0,0,0,1,0,0v0A2,2,0,0,1,40,24Z"/><path class="cls-2" d="M39,29h0a0,0,0,0,1,0,0v2a0,0,0,0,1,0,0H37a0,0,0,0,1,0,0v0A2,2,0,0,1,39,29Z"/><path class="cls-2" d="M32,33h0a0,0,0,0,1,0,0v2a0,0,0,0,1,0,0H30a0,0,0,0,1,0,0v0A2,2,0,0,1,32,33Z"/><rect class="cls-2" x="25" y="26" width="1" height="12"/><path class="cls-2" d="M25,36h0a0,0,0,0,1,0,0v2a0,0,0,0,1,0,0H23a0,0,0,0,1,0,0v0A2,2,0,0,1,25,36Z"/><rect class="cls-2" x="17" y="18" width="1" height="20"/><path class="cls-2" d="M17,36h0a0,0,0,0,1,0,0v2a0,0,0,0,1,0,0H15a0,0,0,0,1,0,0v0A2,2,0,0,1,17,36Z"/><path class="cls-2" d="M40,10h0a0,0,0,0,1,0,0v2a0,0,0,0,1,0,0H38a0,0,0,0,1,0,0v0A2,2,0,0,1,40,10Z" transform="translate(28 50) rotate(-90)"/><rect class="cls-2" x="18" y="18" width="2" height="8"/></g></svg>